<?xml version="1.0" standalone="no"?>
<!DOCTYPE svg PUBLIC "-//W3C//DTD SVG 1.1//EN" "http://www.w3.org/Graphics/SVG/1.1/DTD/svg11.dtd" >
<svg>
<metadata>
Created by FontForge 20090622 at Mon Sep 30 21:28:26 2019
 By deploy user
Adega &#194;&#169; Adega Design &#194;&#169; 2018. All rights reserved.
</metadata>
<defs>
<font id="AdegaSerif" horiz-adv-x="1024" >
  <font-face 
    font-family="Adega Serif"
    font-weight="400"
    font-stretch="normal"
    units-per-em="2048"
    panose-1="2 2 5 3 6 3 5 2 3 3"
    ascent="1638"
    descent="-410"
    x-height="858"
    cap-height="1344"
    bbox="-70 -554 1794 1936"
    underline-thickness="102"
    underline-position="-154"
    unicode-range="U+001D-U+F002"
  />
<missing-glyph horiz-adv-x="1536" 
d="M256 0v1280h1024v-1280h-1024zM288 32h960v1216h-960v-1216z" />
    <glyph glyph-name=".notdef" horiz-adv-x="1536" 
d="M256 0v1280h1024v-1280h-1024zM288 32h960v1216h-960v-1216z" />
    <glyph glyph-name="nonmarkingreturn" horiz-adv-x="0" 
 />
    <glyph glyph-name="nonmarkingreturn" horiz-adv-x="0" 
 />
    <glyph glyph-name="nonmarkingreturn.1" horiz-adv-x="512" 
 />
    <glyph glyph-name="space" unicode=" " horiz-adv-x="500" 
 />
    <glyph glyph-name="exclam" unicode="!" horiz-adv-x="448" 
d="M214 1632h12q64 -10 64 -64q0 -248 -20 -1180q-24 -32 -52 -32q-23 0 -48 32q-20 931 -20 1188q0 43 64 56zM218 140h4q68 -14 68 -60v-16q-10 -64 -64 -64h-12q-64 10 -64 64v16q0 46 68 60z" />
    <glyph glyph-name="quotedbl" unicode="&#x22;" horiz-adv-x="800" 
d="M227 1395h12q64 -9 64 -60q-17 -320 -44 -320l-20 -4h-12q-48 0 -48 132q-16 137 -16 200q0 39 64 52zM570 1395h12q64 -9 64 -60q-18 -320 -44 -320l-20 -4h-12q-48 0 -48 132q-16 137 -16 200q0 39 64 52z" />
    <glyph glyph-name="numbersign" unicode="#" horiz-adv-x="1365" 
d="M214 894h1065q16 -1 16 -8v-80q0 -8 -16 -8h-1065q-16 0 -16 8v80q3 8 16 8zM303 90l297 1110q6 17 12 15l78 -21q7 -2 3 -19l-298 -1110q-4 -17 -12 -15l-77 21q-7 5 -3 19zM645 106l298 1110q5 16 12 15l77 -21q8 -2 3 -19l-297 -1110q-5 -17 -12 -15l-78 21
q-7 5 -3 19zM120 502h1064q16 -1 16 -8v-80q0 -8 -16 -8h-1064q-17 0 -17 8v80q3 8 17 8z" />
    <glyph glyph-name="dollar" unicode="$" 
d="M439 1150h39q99 0 224 -72q18 -4 26 -4q40 0 46 56l16 4h17q3 -41 43 -293q-8 -3 -33 -7q-56 172 -178 237q-95 43 -184 43q-179 0 -220 -142q-10 -21 -10 -52v-20q0 -139 250 -214q255 -93 305 -141q106 -97 106 -223v-27q0 -223 -276 -322q-55 -13 -96 -13h-33
q-141 0 -269 112q-27 6 -33 6h-3q-30 0 -46 -49h-23q-7 0 -7 7v289q1 6 7 6h19q7 -7 36 -121q52 -115 155 -165q103 -46 194 -46q210 0 276 224q7 25 7 46v23q0 174 -290 247q-391 114 -391 315q0 187 194 270q64 26 132 26zM468 1344h69v-1480h-69v1480z" />
    <glyph glyph-name="percent" unicode="%" horiz-adv-x="1515" 
d="M1109 1540q8 -1 8 -8q-8 -16 -604 -1652h-60q-8 0 -8 8l604 1652h60zM357 1317h30q153 0 255 -161q33 -68 33 -130v-27q0 -151 -155 -255q-73 -41 -141 -41h-30q-153 0 -252 157q-36 63 -36 141v20q0 161 177 268q70 28 119 28zM155 1013v-25q0 -244 207 -244h14
q205 0 205 263v25q0 252 -208 252h-5q-213 0 -213 -271zM1131 606h30q153 0 255 -160q33 -69 33 -130v-28q0 -151 -155 -254q-73 -42 -141 -42h-30q-153 0 -252 158q-36 63 -36 141v19q0 162 177 269q70 27 119 27zM929 302v-25q0 -243 207 -243h14q205 0 205 263v24
q0 252 -207 252h-6q-213 0 -213 -271z" />
    <glyph glyph-name="ampersand" unicode="&#x26;" horiz-adv-x="1206" 
d="M581 1280h25q142 0 224 -140q22 -51 22 -105v-31q0 -173 -274 -252q104 -200 302 -494h3q49 172 49 283q0 70 -65 84q-40 6 -40 12v25q1 6 6 6h301q7 -1 7 -6v-25q0 -4 -66 -18q-40 -26 -40 -100q-24 -129 -56 -214q-41 -84 -59 -115q82 -116 143 -137q38 -12 87 -15
l3 -7v-24q0 -7 -6 -7h-218q-13 3 -90 87q-129 -127 -276 -127q-235 0 -376 183q-87 122 -87 258v25q0 229 214 348q62 28 81 28q-53 121 -53 208v25q0 170 174 236q34 9 65 9zM488 1069v-19q0 -87 56 -226q174 49 174 217q0 101 -74 180q-22 16 -41 16h-15q-64 0 -97 -118
q-3 -32 -3 -50zM255 336q0 -217 190 -298q56 -19 118 -19h15q134 0 230 109q-167 225 -276 416q-33 51 -84 146h-3q-190 -137 -190 -354z" />
    <glyph glyph-name="quotesingle" unicode="'" horiz-adv-x="363" 
d="M171 1395h12q64 -9 64 -60q-17 -320 -44 -320l-20 -4h-12q-48 0 -48 132q-16 137 -16 200q0 39 64 52z" />
    <glyph glyph-name="parenleft" unicode="(" horiz-adv-x="572" 
d="M517 1715h52v-8q-148 -85 -244 -424q-72 -278 -72 -580q0 -544 196 -880q46 -74 120 -124v-8h-52q-234 136 -372 592q-52 209 -52 380v80q0 389 208 748q98 148 216 224z" />
    <glyph glyph-name="parenright" unicode=")" horiz-adv-x="582" 
d="M65 1715q118 -76 216 -224q208 -359 208 -748v-80q0 -171 -52 -380q-138 -456 -372 -592h-52v8q73 50 120 124q196 336 196 880q0 302 -72 580q-96 339 -244 424v8h52z" />
    <glyph glyph-name="asterisk" unicode="*" 
d="M501 1375h24q43 0 60 -60l-36 -260q145 192 176 220l20 4h4q76 -12 76 -76v-4q0 -38 -164 -148l-60 -48h4q160 24 260 36q56 -21 56 -60v-24q0 -43 -60 -60l-260 36q193 -145 220 -176l4 -20v-4q-12 -76 -76 -76h-4q-38 0 -148 164l-48 60v-4q24 -161 36 -260
q-21 -56 -60 -56h-24q-43 0 -60 60l36 260q-145 -193 -176 -220l-20 -4h-4q-76 12 -76 76v4q0 37 164 148l60 48h-4q-160 -24 -260 -36q-56 20 -56 60v24q0 42 60 60l260 -36q-193 144 -220 176l-4 20v4q12 76 76 76h4q37 0 148 -164l48 -60v4q-24 160 -36 260q21 56 60 56z
" />
    <glyph glyph-name="plus" unicode="+" horiz-adv-x="742" 
d="M338 813h84q8 -1 8 -8v-212h212q8 -1 8 -8v-84q0 -8 -8 -8h-212v-212q0 -8 -8 -8h-84q-8 0 -8 8v212h-212q-8 0 -8 8v84q2 8 8 8h212v212q2 8 8 8z" />
    <glyph glyph-name="comma" unicode="," horiz-adv-x="448" 
d="M195 21q-10 5 -18 14q-21 20 -21 49q0 28 20.5 49t49.5 21q28 0 49 -20t21 -50q0 -9 -2 -17v-1q0 -112 -205 -257q-3 -2 -7 -2t-8 2q-5 0 -13 9q-2 11 2 17q4 3 68 54q62 50 64 132z" />
    <glyph glyph-name="hyphen" unicode="-" horiz-adv-x="611" 
d="M45 586h524q8 -1 8 -8v-80q0 -8 -8 -8h-524q-8 0 -8 8v80q1 8 8 8z" />
    <glyph glyph-name="hyphen" unicode="&#xad;" horiz-adv-x="611" 
d="M45 586h524q8 -1 8 -8v-80q0 -8 -8 -8h-524q-8 0 -8 8v80q1 8 8 8z" />
    <glyph glyph-name="period" unicode="." horiz-adv-x="399" 
d="M202 154q28 0 49 -20t21 -50q0 -29 -20.5 -49.5t-49.5 -20.5t-49.5 20.5t-20.5 49.5q0 28 20.5 49t49.5 21z" />
    <glyph glyph-name="slash" unicode="/" horiz-adv-x="826" 
d="M774 1560q8 -1 8 -8q-8 -16 -604 -1652h-60q-8 0 -8 8l604 1652h60z" />
    <glyph glyph-name="zero" unicode="0" horiz-adv-x="899" 
d="M469 0h-44q-195 0 -328 268q-52 138 -52 264v52q0 293 212 484q103 64 172 64h44q196 0 328 -268q52 -138 52 -264v-52q0 -293 -212 -484q-103 -64 -172 -64zM461 48q276 0 276 524v44q0 339 -156 436q-52 32 -112 32h-32q-276 0 -276 -524v-44q0 -339 156 -436
q53 -32 112 -32h32z" />
    <glyph glyph-name="one" unicode="1" horiz-adv-x="827" 
d="M499 1132l4 -8v-1000q0 -92 84 -92l4 -8v-16q0 -8 -8 -8h-264q-8 0 -8 8v16q0 6 72 24q28 26 28 72v752q0 23 4 64q0 92 -44 112q-60 8 -60 16v20q0 12 188 48z" />
    <glyph glyph-name="two" unicode="2" horiz-adv-x="940" 
d="M422 1104h52q230 0 320 -168q20 -49 20 -116q0 -192 -384 -480q-202 -169 -272 -244h468q128 0 164 48q11 15 20 52h20q8 -1 8 -8v-180q0 -8 -8 -8h-732q-8 0 -8 8v84q81 82 364 332q203 201 228 280q20 62 20 108q0 172 -204 240q-38 8 -60 8q-201 0 -300 -212
q-13 -48 -24 -48q-21 0 -24 12q22 204 44 204q158 88 288 88z" />
    <glyph glyph-name="three" unicode="3" horiz-adv-x="932" 
d="M428 1120h56q142 0 248 -112q52 -65 52 -152q0 -141 -140 -232q188 -130 188 -272v-36q0 -168 -220 -288q-83 -28 -140 -28h-36q-150 0 -308 112q-28 195 -28 220l8 4h24q46 -162 148 -232q91 -60 152 -60h20q146 0 244 164q24 40 36 120l-4 8v16q0 151 -224 200
q-44 4 -76 4h-20q-12 4 -12 24v8q0 7 88 28q200 80 200 252q0 145 -184 208q-27 4 -44 4h-28q-115 0 -212 -120q-35 -60 -48 -100l-8 -4h-16l-8 4q25 184 40 184q146 76 252 76z" />
    <glyph glyph-name="four" unicode="4" horiz-adv-x="910" 
d="M718 1132l4 -8v-744h4q80 0 80 88l8 4h16q8 -1 8 -8v-200q0 -8 -8 -8h-16q-7 0 -16 56q-24 36 -76 36v-232q0 -84 84 -84l4 -8v-16q0 -8 -8 -8h-268q-8 0 -8 8v16q0 8 68 20q36 26 36 68v236h-572q-8 0 -8 8v16q0 26 328 428q241 303 264 316q65 16 76 16zM114 380h516
v644z" />
    <glyph glyph-name="five" unicode="5" horiz-adv-x="927" 
d="M222 1104h552q8 -1 8 -8v-184q0 -8 -8 -8h-20q-5 0 -20 60q-27 44 -204 44h-132h-112l-36 -308h4q92 44 172 44q199 0 344 -188q52 -84 52 -156v-40q0 -169 -200 -308q-108 -52 -176 -52h-52q-119 0 -248 80q-36 151 -36 164q2 0 12 8h12q55 -103 104 -156
q71 -64 164 -64q210 0 308 244q16 92 16 112q0 220 -192 296q-34 12 -120 20q-151 0 -176 -100h-24l-8 4q32 262 32 380q0 70 -24 88v20q1 8 8 8z" />
    <glyph glyph-name="six" unicode="6" horiz-adv-x="953" 
d="M511 1132h36q112 0 236 -76l36 -168l-8 -4h-24q-82 204 -276 204q-183 0 -260 -188q-32 -102 -32 -252v-36q121 108 268 108h8q227 0 340 -224q24 -63 24 -108v-36q0 -213 -244 -332q-69 -20 -124 -20h-36q-176 0 -300 184q-44 86 -44 228v88q0 401 164 540
q117 92 236 92zM227 392v-68q0 -276 260 -276q256 0 256 284v64q0 284 -260 284q-188 0 -240 -172q-16 -78 -16 -116z" />
    <glyph glyph-name="seven" unicode="7" horiz-adv-x="985" 
d="M138 1104h740q8 -1 8 -8v-20q-30 -76 -252 -540q-156 -357 -156 -512v-16q0 -8 -8 -8h-164l-8 4q471 963 484 1000h-448q-172 0 -172 -100l-8 -4h-16q-8 0 -8 8v188q1 8 8 8z" />
    <glyph glyph-name="eight" unicode="8" 
d="M486 1132h48q186 0 280 -148q13 -22 20 -80q0 -128 -220 -264q280 -111 280 -312v-28q0 -174 -204 -276q-85 -24 -136 -24h-48q-231 0 -356 192q-20 56 -20 92v32q0 149 248 292h4v4q-200 125 -200 244q0 186 220 264q62 12 84 12zM294 904q0 -122 248 -228
q244 105 244 232q0 133 -216 172q-27 4 -44 4q-162 0 -224 -136q-8 -39 -8 -44zM182 304q0 -199 284 -252q21 0 36 -4q166 0 268 144q32 48 32 112q0 151 -324 264q0 4 -24 12q-272 -103 -272 -276z" />
    <glyph glyph-name="nine" unicode="9" horiz-adv-x="948" 
d="M448 1132h36q176 0 300 -184q44 -86 44 -228v-88q0 -409 -168 -540q-108 -92 -232 -92h-36q-113 0 -236 76l-36 168l8 4h24q81 -204 276 -204q182 0 260 188q32 102 32 252v36q-121 -108 -268 -108h-8q-195 0 -312 172q-52 81 -52 172v24q0 213 244 332q69 20 124 20z
M196 800v-64q0 -284 260 -284q188 0 240 172q16 78 16 116v68q0 276 -260 276q-256 0 -256 -284z" />
    <glyph glyph-name="colon" unicode=":" horiz-adv-x="448" 
d="M226 154q28 0 49 -20t21 -50q0 -29 -20.5 -49.5t-49.5 -20.5t-49.5 20.5t-20.5 49.5q0 28 20.5 49t49.5 21zM226 721q28 0 49 -20t21 -50q0 -29 -20.5 -49.5t-49.5 -20.5t-49.5 20.5t-20.5 49.5t20.5 49.5t49.5 20.5z" />
    <glyph glyph-name="semicolon" unicode=";" horiz-adv-x="448" 
d="M226 721q28 0 49 -20t21 -50q0 -29 -20.5 -49.5t-49.5 -20.5t-49.5 20.5t-20.5 49.5t20.5 49.5t49.5 20.5zM195 21q-10 5 -18 14q-21 20 -21 49q0 28 20.5 49t49.5 21q28 0 49 -20t21 -50q0 -9 -2 -17v-1q0 -112 -205 -257q-3 -2 -7 -2t-8 2q-5 0 -13 9q-2 11 2 17
q4 3 68 54q62 50 64 132z" />
    <glyph glyph-name="less" unicode="&#x3c;" horiz-adv-x="1365" 
d="M1218 40l-1071 456v78l1071 453v-96l-955 -396l955 -398v-97z" />
    <glyph glyph-name="equal" unicode="=" horiz-adv-x="758" 
d="M108 707h524q8 -1 8 -8v-80q0 -8 -8 -8h-524q-8 0 -8 8v80q1 8 8 8zM113 475h524q8 -2 8 -8v-80q0 -8 -8 -8h-524q-8 0 -8 8v80q1 8 8 8z" />
    <glyph glyph-name="greater" unicode="&#x3e;" horiz-adv-x="1365" 
d="M147 1027l1071 -455v-79l-1071 -453v96l955 397l-955 398v96z" />
    <glyph glyph-name="question" unicode="?" horiz-adv-x="875" 
d="M382 1632h40q220 0 324 -204q32 -68 32 -148v-44q0 -167 -184 -348q-208 -213 -208 -264q-11 -3 -16 -68q0 -38 44 -116l-40 -32h-4q-92 74 -92 180q0 146 264 428q96 120 96 236q0 125 -128 224q-64 40 -140 40q-141 0 -204 -172q-18 -29 -40 -84q-56 3 -56 24
q65 249 84 272q118 76 228 76zM423 1q-30 0 -51.5 21.5t-21.5 51.5t21.5 51.5t51.5 21.5q31 0 52.5 -21.5t21.5 -51.5t-21.5 -51.5t-52.5 -21.5z" />
    <glyph glyph-name="at" unicode="@" horiz-adv-x="1616" 
d="M1207 776l-99 -338q-79 -269 -79 -320q0 -25 17 -45.5t47 -20.5q69 0 156 68.5t145 204t58 280.5q0 225 -153 373t-396 148q-200 0 -364.5 -105t-263 -297t-98.5 -408q0 -297 186.5 -485t470.5 -188q171 0 313 65.5t231.5 172t141.5 230.5h49q-72 -231 -276.5 -375.5
t-454.5 -144.5q-322 0 -531.5 214t-209.5 533q0 349 231.5 590t578.5 241q270 0 432.5 -164t162.5 -418q0 -236 -134 -416t-331 -180q-65 0 -98 30t-33 88q0 46 15 123q-195 -241 -334 -241q-68 0 -110.5 59.5t-42.5 139.5q0 115 72.5 259t188.5 238t207 94q59 0 95 -29
t49 -87l28 93zM910 742q-111 0 -226.5 -200.5t-115.5 -325.5q0 -48 26.5 -85.5t71.5 -37.5q80 0 175.5 103t135 227.5t39.5 193.5q0 53 -28 89t-78 36z" />
    <glyph glyph-name="A" unicode="A" horiz-adv-x="1206" 
d="M604 1344q8 -7 176 -468q264 -734 296 -800q31 -40 92 -40v-28q0 -8 -8 -8h-348q-8 0 -8 8v24q1 8 8 8h32q72 0 72 56q-85 256 -96 256h-584q-88 -238 -88 -256v-4q0 -52 60 -52h44q8 -1 8 -8v-24q0 -8 -8 -8h-244q-8 0 -8 8v24q0 7 64 16q32 17 76 140q0 11 420 1156h44
zM528 1156q0 -8 -276 -764h556v4l-276 760h-4z" />
    <glyph glyph-name="B" unicode="B" horiz-adv-x="1121" 
d="M68 1344h528q202 0 320 -180q40 -67 40 -132v-40q0 -148 -192 -244q-42 -16 -52 -16v-4q191 -48 268 -152q60 -90 60 -180v-32q0 -173 -200 -304q-109 -60 -236 -60h-536q-8 0 -8 8v24q0 7 64 16q44 28 44 88v1080q0 81 -104 92q-4 0 -4 4v24q1 8 8 8zM280 1180v-436h260
q312 0 312 276q0 173 -152 264q-59 28 -188 28h-40q-168 0 -168 -44q-16 0 -24 -88zM280 704v-564q0 -100 88 -100h232q235 0 312 252q8 42 12 96q0 251 -268 308q-85 8 -156 8h-220z" />
    <glyph glyph-name="C" unicode="C" horiz-adv-x="1153" 
d="M624 1382h48q148 0 303 -130q26 -12 36 -12h15q34 0 52 59h27q8 -1 8 -8v-347q0 -7 -8 -7h-23q-10 0 -32 114q-110 272 -378 272q-321 0 -387 -442q-12 -108 -12 -189v-79q0 -422 213 -560q77 -43 178 -43q275 0 425 327q32 -11 32 -23q-104 -233 -311 -331
q-89 -32 -150 -32h-51q-187 0 -363 221q-146 208 -146 465v67q-10 280 170 477q180 201 354 201z" />
    <glyph glyph-name="D" unicode="D" horiz-adv-x="1100" 
d="M68 1344h436q181 0 364 -196q168 -219 168 -452v-48q0 -280 -228 -516q-167 -132 -304 -132h-436q-8 0 -8 8v24q0 7 60 16q48 25 48 92v1064q0 104 -108 104v28q1 8 8 8zM250 1176v-1008q7 -120 52 -120q24 -12 88 -12q261 0 352 144q120 162 120 480v24q0 411 -196 556
q-81 68 -284 68q-100 0 -120 -48q-12 -43 -12 -84z" />
    <glyph glyph-name="E" unicode="E" horiz-adv-x="1032" 
d="M68 1344h872q8 -1 8 -8v-204q0 -8 -8 -8h-24q-5 0 -20 68q-32 59 -120 88q-100 24 -180 24h-184q-87 0 -108 -52q-24 -66 -24 -152v-388h240q120 0 120 92q1 20 12 20h24q8 -1 8 -8v-284q0 -8 -8 -8h-24q-11 0 -20 68q-30 44 -92 44h-260v-392q0 -204 112 -204h204
q223 0 296 104q12 30 20 76h28q8 -1 8 -8v-204q0 -8 -8 -8h-872q-8 0 -8 8v24q0 6 52 20q56 49 56 188v864q0 160 -72 196q-36 3 -36 12v24q1 8 8 8z" />
    <glyph glyph-name="F" unicode="F" horiz-adv-x="1042" 
d="M98 1344h872q8 -1 8 -8v-204q0 -8 -8 -8h-24q-5 0 -20 68q-32 59 -120 88q-100 24 -180 24h-200q-116 0 -116 -112v-484h216q140 0 140 60q10 52 16 52h28q8 -1 8 -8v-280q0 -8 -8 -8h-28q-7 0 -16 64q-27 48 -120 48h-236v-400q1 -165 76 -192q36 -4 36 -12v-24
q0 -8 -8 -8h-316q-8 0 -8 8v24q0 6 52 20q56 52 56 180v984q0 88 -96 88q-12 0 -12 8v24q1 8 8 8z" />
    <glyph glyph-name="G" unicode="G" horiz-adv-x="1274" 
d="M617 1379h44q152 0 301 -127q28 -16 48 -16h8q38 0 51 60h32q8 -2 8 -8v-349q0 -8 -8 -8h-28q-6 5 -35 127q-114 261 -369 261h-8q-323 0 -385 -452q-12 -83 -12 -170v-76q0 -454 238 -586q69 -36 159 -36h8q160 0 281 119q52 88 52 309q0 179 -48 179q-9 9 -67 19v28
q1 8 8 8h313q8 -1 8 -8v-24q0 -6 -71 -23q-36 -13 -36 -131q-4 -9 -4 -147v-12q0 -258 -329 -361q-72 -16 -99 -16h-60q-156 0 -321 163q-206 225 -206 523v72q0 240 171 480q179 202 356 202z" />
    <glyph glyph-name="H" unicode="H" horiz-adv-x="1290" 
d="M78 1344h316q8 -1 8 -8v-24q0 -7 -64 -16q-48 -22 -48 -100v-504h728v504q0 87 -60 104q-52 3 -52 12v24q1 8 8 8h316q8 -1 8 -8v-24q0 -4 -68 -20q-40 -30 -40 -76v-1088q0 -81 104 -92q4 0 4 -4v-24q0 -8 -8 -8h-316q-8 0 -8 8v24q0 7 64 16q48 22 48 100v504h-728
v-504q0 -86 60 -104q52 -3 52 -12v-24q0 -8 -8 -8h-316q-8 0 -8 8v24q0 4 68 20q40 30 40 76v1088q0 81 -104 92q-4 0 -4 4v24q1 8 8 8z" />
    <glyph glyph-name="I" unicode="I" horiz-adv-x="542" 
d="M128 1344h312q8 -1 8 -8v-24q0 -7 -60 -16q-48 -25 -48 -92v-1064q0 -104 108 -104v-28q0 -8 -8 -8h-312q-8 0 -8 8v24q0 7 60 16q48 25 48 92v1064q0 104 -108 104v28q1 8 8 8z" />
    <glyph glyph-name="J" unicode="J" horiz-adv-x="701" 
d="M278 1340h312q8 -1 8 -8v-24q0 -7 -60 -16q-48 -25 -48 -92v-788q0 -281 -64 -344q-115 -128 -288 -128h-60q-8 0 -8 8q0 40 64 40q85 0 188 108q60 70 60 208q-4 74 -4 108v788q0 104 -108 104v28q1 8 8 8z" />
    <glyph glyph-name="K" unicode="K" horiz-adv-x="1164" 
d="M98 1344h316q8 -1 8 -8v-24q0 -7 -64 -16q-48 -23 -48 -96v-560h100q345 489 376 548q12 27 12 44v16q-14 60 -92 60v28q1 8 8 8h288q8 -1 8 -8v-24q0 -4 -60 -24q-147 -123 -208 -236q-25 -29 -292 -412q279 0 436 -204q45 -57 100 -256q57 -140 144 -140l4 -8v-24
q0 -8 -8 -8h-48q-182 0 -236 272q-53 187 -168 256q-117 72 -352 72h-12v-456q0 -85 64 -100q48 -4 48 -12v-24q0 -8 -8 -8h-316q-8 0 -8 8v24q0 7 60 16q48 25 48 92v1064q0 104 -108 104v28q1 8 8 8z" />
    <glyph glyph-name="L" unicode="L" horiz-adv-x="958" 
d="M48 1344h316q8 -1 8 -8v-24q0 -7 -64 -16q-48 -25 -48 -92v-928q0 -178 68 -220q40 -16 68 -16h180q223 0 296 104q12 30 20 76h28q8 -1 8 -8v-204q0 -8 -8 -8h-872q-8 0 -8 8v24q0 5 60 20q48 40 48 148v1000q0 82 -60 100q-48 3 -48 12v24q1 8 8 8z" />
    <glyph glyph-name="M" unicode="M" horiz-adv-x="1400" 
d="M88 1344h200q12 0 100 -260q45 -112 328 -896h4q412 1143 424 1156h208q8 -1 8 -8v-24q0 -4 -68 -20q-40 -30 -40 -76v-1088q0 -81 104 -92q4 0 4 -4v-24q0 -8 -8 -8h-316q-8 0 -8 8v24q0 7 64 16q48 22 48 100v1080h-4q-44 -130 -448 -1228h-40q-13 0 -96 248
q-24 51 -360 984h-4v-1064q0 -112 40 -112q31 -20 72 -20v-28q0 -8 -8 -8h-244q-8 0 -8 8v24q0 7 64 16q44 29 44 96v1064q0 100 -68 100v28q1 8 8 8z" />
    <glyph glyph-name="N" unicode="N" horiz-adv-x="1142" 
d="M68 1344h244q59 -91 632 -1112h4v932q0 128 -44 128q-18 11 -68 16v28q1 8 8 8h244q8 -1 8 -8v-24q0 -7 -64 -16q-44 -29 -44 -96v-1192q0 -8 -8 -8h-64q-20 24 -704 1236h-4v-1056q0 -128 44 -128q18 -11 68 -16v-28q0 -8 -8 -8h-244q-8 0 -8 8v24q0 7 64 16
q44 29 44 96v1056q0 82 -60 100q-48 3 -48 12v24q1 8 8 8z" />
    <glyph glyph-name="O" unicode="O" horiz-adv-x="1218" 
d="M596 1382h56q160 0 320 -196q156 -221 156 -496v-60q0 -330 -236 -584q-145 -116 -260 -116h-56q-160 0 -320 196q-156 221 -156 496v60q0 330 236 584q145 116 260 116zM244 642q0 -652 372 -652q368 0 368 680q0 652 -372 652q-368 0 -368 -680z" />
    <glyph glyph-name="P" unicode="P" horiz-adv-x="1116" 
d="M98 1344h536q276 0 404 -240q32 -66 32 -124v-40q0 -194 -244 -300q-114 -40 -236 -40h-280v-460q0 -104 112 -104v-28q0 -8 -8 -8h-316q-8 0 -8 8v24q0 4 68 20q40 30 40 76v1088q0 81 -104 92q-4 0 -4 4v24q1 8 8 8zM310 1204v-564h220q344 0 400 192q24 53 24 124
q0 218 -188 320q-72 28 -136 28h-232q-88 0 -88 -100z" />
    <glyph glyph-name="Q" unicode="Q" horiz-adv-x="1190" 
d="M586 1402h56q160 0 320 -196q156 -221 156 -496v-48q0 -323 -212 -572q88 -60 148 -60q42 4 60 12l4 -8v-28q0 -9 -48 -16h-36q-57 0 -152 76q-135 -116 -276 -116h-40q-160 0 -320 196q-156 221 -156 496v60q0 330 236 584q145 116 260 116zM234 662q0 -251 56 -404h4
q104 32 176 32h28q169 0 352 -156q124 174 124 544v4q0 660 -372 660q-368 0 -368 -680zM322 182q90 -172 280 -172q142 0 224 96q-151 112 -292 112h-36q-93 0 -176 -36z" />
    <glyph glyph-name="R" unicode="R" horiz-adv-x="1127" 
d="M78 1344h536q288 0 416 -268q20 -76 20 -120q0 -218 -260 -320q-102 -32 -148 -32v-4q159 -53 248 -200q36 -85 88 -248q54 -112 132 -112l4 -8v-24q0 -8 -8 -8h-48q-184 0 -240 284q-87 316 -452 316h-76v-456q0 -85 64 -100q48 -4 48 -12v-24q0 -8 -8 -8h-316
q-8 0 -8 8v24q0 7 60 16q48 25 48 92v1064q0 104 -108 104v28q1 8 8 8zM290 1200v-560h100q13 0 20 4l24 -4h72q312 0 384 152q40 65 40 152v16q0 242 -220 328q-54 16 -108 16h-216q-96 0 -96 -104z" />
    <glyph glyph-name="S" unicode="S" horiz-adv-x="1067" 
d="M502 1398h48q120 0 272 -88q22 -4 32 -4q49 0 56 68l20 4h20q4 -50 52 -356q-10 -4 -40 -8q-67 209 -216 288q-115 52 -224 52q-218 0 -268 -172q-12 -26 -12 -64v-24q0 -169 304 -260q311 -114 372 -172q128 -118 128 -272v-32q0 -272 -336 -392q-66 -16 -116 -16h-40
q-172 0 -328 136q-32 8 -40 8h-4q-36 0 -56 -60h-28q-8 0 -8 8v352q1 8 8 8h24q8 -9 44 -148q62 -140 188 -200q125 -56 236 -56q256 0 336 272q8 30 8 56v28q0 212 -352 300q-476 139 -476 384q0 228 236 328q77 32 160 32z" />
    <glyph glyph-name="T" unicode="T" horiz-adv-x="1158" 
d="M68 1344h1012q8 -1 8 -8v-204q0 -8 -8 -8h-24q-5 0 -20 68q-31 60 -132 92q-82 20 -232 20h-44v-1140q0 -95 44 -112q21 -11 68 -16v-28q0 -8 -8 -8h-316q-8 0 -8 8v24q0 7 64 16q48 22 48 128v1128h-52q-284 0 -348 -96q-16 -35 -24 -84h-28q-8 0 -8 8v204q1 8 8 8z" />
    <glyph glyph-name="U" unicode="U" horiz-adv-x="1300" 
d="M78 1340h316q8 -1 8 -8v-24q0 -7 -64 -16q-48 -26 -48 -88q-8 -505 -8 -764q0 -460 368 -460q312 0 416 300q24 70 24 288v604q0 112 -40 112q-30 20 -72 20v28q1 8 8 8h244q8 -1 8 -8v-24q0 -7 -64 -16q-44 -29 -44 -96v-588q0 -328 -60 -416q-151 -252 -400 -252h-52
q-230 0 -376 232q-72 125 -72 396q8 303 8 652q-19 80 -80 80q-28 0 -28 8v24q1 8 8 8z" />
    <glyph glyph-name="V" unicode="V" horiz-adv-x="1216" 
d="M28 1344h348q8 -1 8 -8v-24q0 -8 -8 -8h-24q-80 0 -80 -60l384 -1056h4l380 1052v12q0 52 -80 52h-24q-8 0 -8 8v24q1 8 8 8h244q8 -1 8 -8v-24q0 -7 -64 -16q-31 -5 -144 -328q0 -9 -352 -968h-44q-8 7 -176 468q-264 734 -296 800q-31 40 -92 40v28q1 8 8 8z" />
    <glyph glyph-name="W" unicode="W" horiz-adv-x="1711" 
d="M28 1344h348q8 -1 8 -8v-24q0 -8 -8 -8h-24q-80 0 -80 -56q0 -7 384 -1060h4l176 492q-197 539 -224 596q-23 25 -92 32v28q1 8 8 8h352q8 -1 8 -8v-24q0 -8 -8 -8h-24q-80 0 -80 -60l384 -1056h4l380 1052v16q0 48 -80 48h-24q-8 0 -8 8v24q1 8 8 8h244q8 -1 8 -8v-24
q0 -7 -64 -16q-38 -13 -164 -392q-32 -81 -332 -904h-44q-16 20 -228 616h-8q-213 -598 -228 -616h-40q-8 0 -316 860l-152 404q-34 44 -96 44v28q1 8 8 8z" />
    <glyph glyph-name="X" unicode="X" horiz-adv-x="1221" 
d="M58 1344h308q8 -1 8 -8v-24q0 -7 -64 -16q-16 -18 -16 -20v-20q0 -47 268 -420q52 -88 76 -116q328 464 328 480q8 36 8 40q0 56 -92 68v28q1 8 8 8h284q8 -1 8 -8v-24q0 -5 -60 -24q-113 -89 -232 -264l-232 -336q194 -312 416 -584q61 -59 108 -68v-28q0 -8 -8 -8h-308
q-8 0 -8 8v24q0 7 64 16l16 20v20q0 45 -204 328q-124 184 -128 196q-301 -410 -332 -484q0 -16 -4 -32q0 -51 80 -60v-28q0 -8 -8 -8h-284q-8 0 -8 8v24q0 7 56 20q156 120 240 256l236 336q-207 331 -424 596q-61 59 -108 68v28q1 8 8 8z" />
    <glyph glyph-name="Y" unicode="Y" horiz-adv-x="1200" 
d="M38 1344h312q8 -1 8 -8v-24q0 -7 -64 -16q-20 -13 -20 -32v-12q11 -57 232 -364l120 -188h8l312 480q12 31 12 56v4q0 57 -96 68v28q1 8 8 8h288q8 -1 8 -8v-24q0 -5 -60 -24q-110 -89 -236 -288q-6 -14 -216 -332v-500q0 -96 48 -120q64 -9 64 -16v-24q0 -8 -8 -8h-316
q-8 0 -8 8v24q0 5 72 20q40 25 40 120v488q0 23 -288 432q-159 216 -228 216v28q1 8 8 8z" />
    <glyph glyph-name="Z" unicode="Z" horiz-adv-x="1158" 
d="M130 1344h920q8 -1 8 -8v-24q-86 -57 -160 -164q-266 -380 -672 -1108v-4h400q350 0 400 100q18 19 28 84h28q8 -1 8 -8v-204q0 -8 -8 -8h-984q-8 0 -8 8v32l752 1264h-364q-257 -7 -304 -120q-9 -60 -16 -60h-28q-8 0 -8 8v204q1 8 8 8z" />
    <glyph glyph-name="bracketleft" unicode="[" horiz-adv-x="663" 
d="M95 1706v7h481v-89h-393v-1849h393v-89h-481v23h-1v1997h1z" />
    <glyph glyph-name="backslash" unicode="\" horiz-adv-x="863" 
d="M118 1560h60l604 -1652q0 -8 -8 -8h-60q-596 1636 -604 1652q0 7 8 8z" />
    <glyph glyph-name="bracketright" unicode="]" horiz-adv-x="600" 
d="M525 1706h1v-1997h-1v-23h-481v89h393v1849h-393v89h481v-7z" />
    <glyph glyph-name="asciicircum" unicode="^" horiz-adv-x="960" 
d="M498 1384l425 -717h-92l-350 586l-350 -586h-94l431 717h30z" />
    <glyph glyph-name="underscore" unicode="_" 
d="M-12 -154h1048v-102h-1048v102z" />
    <glyph glyph-name="grave" unicode="`" horiz-adv-x="683" 
d="M280 1496l28 -8q188 -235 188 -256v-24q-22 -28 -28 -28h-24q-20 0 -104 88q-140 116 -140 148v16q0 54 64 64h16z" />
    <glyph glyph-name="a" unicode="a" horiz-adv-x="896" 
d="M404 872h40q190 0 288 -176q32 -83 32 -172q-8 -139 -8 -300q0 -117 64 -160q64 -19 64 -24v-32q0 -8 -8 -8h-216q-8 0 -8 8v116q-137 -144 -312 -144h-40q-188 0 -272 156q-8 36 -8 52v20q0 136 144 224q99 46 328 112q148 61 148 104q0 81 -152 152q-43 12 -72 12h-20
q-136 0 -240 -220h-4q-24 0 -72 52q30 105 128 168q99 60 196 60zM152 216v-8q0 -132 196 -168h44q146 0 244 164q20 51 20 92v80q0 72 -4 196q-4 8 -4 12q-62 -58 -352 -176q-144 -91 -144 -192z" />
    <glyph glyph-name="b" unicode="b" horiz-adv-x="1053" 
d="M248 1698l4 -8v-956q143 148 312 148q243 0 376 -264q32 -84 32 -160v-36q0 -228 -220 -380q-96 -52 -184 -52h-32q-153 0 -292 144q-44 -124 -44 -144h-40q-8 0 -8 8v1480q-11 112 -64 112q0 7 -68 16v40q0 10 228 52zM260 418q0 -274 136 -344q67 -24 128 -24h20
q292 0 292 388q0 392 -292 392h-8q-190 0 -244 -168q-32 -89 -32 -244z" />
    <glyph glyph-name="c" unicode="c" horiz-adv-x="853" 
d="M460 868h36q206 0 312 -212v-16q-52 -52 -72 -52q-42 104 -100 152q-91 76 -180 76q-169 0 -248 -248q-20 -57 -20 -148q0 -270 208 -360q58 -16 112 -20q140 0 236 124q10 0 52 -12v-8q-98 -164 -284 -164h-20q-196 0 -340 172q-92 123 -92 264v36q0 233 216 368
q89 48 184 48z" />
    <glyph glyph-name="d" unicode="d" horiz-adv-x="1045" 
d="M882 1688l4 -8v-1508q10 -112 68 -112q64 -13 64 -20v-32q0 -8 -8 -8h-216q-8 0 -8 8v104q-130 -132 -280 -132h-32q-231 0 -372 268q-32 94 -32 164v36q0 220 204 364q101 60 204 60q168 0 308 -144v708q0 106 -44 136q-23 16 -92 24v40q0 10 232 52zM210 468v-76
q0 -255 172 -332q58 -20 116 -20h20q264 0 264 352v32q0 276 -124 360q-70 36 -152 36h-12q-222 0 -272 -240q-12 -51 -12 -112z" />
    <glyph glyph-name="e" unicode="e" horiz-adv-x="875" 
d="M454 868h32q206 0 308 -192q35 -83 36 -136v-36q-18 -96 -172 -96q-34 -4 -116 -4h-364q0 -253 212 -344q50 -16 108 -20q139 0 236 124q10 0 52 -12v-8q-99 -164 -284 -164h-20q-196 0 -340 172q-92 123 -92 264v36q0 245 236 380q89 36 168 36zM178 452h428
q128 0 128 100q0 147 -188 244q-58 20 -100 20q-167 0 -248 -244q-20 -79 -20 -120z" />
    <glyph glyph-name="f" unicode="f" horiz-adv-x="576" 
d="M540 1680h48q204 0 312 -216q-1 -18 -64 -60h-8q-5 0 -72 116q-95 112 -216 112q-186 0 -240 -296q-4 -23 -4 -64v-348h188q8 -1 8 -8v-40q0 -8 -8 -8h-192v-692q0 -89 64 -120q72 -9 72 -16v-32q0 -8 -8 -8h-352q-8 0 -8 8v32q0 5 76 20q60 22 60 160v648h-64q-8 0 -8 8
v40q1 8 8 8h64v384q0 272 232 352q62 20 112 20z" />
    <glyph glyph-name="g" unicode="g" horiz-adv-x="995" 
d="M422 854h52q42 0 344 -44q92 0 92 -12v-44q0 -8 -8 -8h-176q80 -128 80 -252q0 -183 -200 -276q-49 -15 -228 -44q-84 -34 -84 -76q10 -28 48 -28h4q144 16 168 16q301 0 372 -200q8 -18 8 -52v-12q0 -222 -268 -312q-87 -20 -152 -20h-48q-225 0 -340 168q-16 48 -16 80
v24q0 137 156 256q28 16 40 16v8h-8q-68 13 -68 56v20q0 65 88 100v4q-192 98 -192 288v20q0 216 232 308q58 16 104 16zM206 510q0 -169 148 -264q51 -20 92 -20h4q175 0 240 216q8 52 8 76q0 210 -176 292q-57 12 -76 12q-166 0 -228 -216q-12 -40 -12 -96zM178 -246
q0 -148 204 -216q55 -16 108 -16q189 0 280 208q16 51 16 88q0 148 -192 212q-48 12 -88 12h-24q-190 0 -288 -208z" />
    <glyph glyph-name="h" unicode="h" horiz-adv-x="1067" 
d="M292 1636l4 -8v-48v-836q149 128 324 128q300 0 300 -408q-4 -151 -4 -280v-12q0 -98 80 -120q52 -3 52 -12v-32q0 -8 -8 -8h-352q-8 0 -8 8v32q0 7 72 16q64 31 64 136v12q0 448 -100 528q-70 76 -168 76h-24q-129 0 -228 -128l-4 -484q0 -148 120 -148q16 0 16 -8v-32
q0 -8 -8 -8h-352q-8 0 -8 8v32q0 6 80 20q52 33 52 112v1244q0 89 -64 116q-68 9 -68 16v36q0 11 232 52z" />
    <glyph glyph-name="i" unicode="i" horiz-adv-x="533" 
d="M228 1588h16q57 0 68 -72q0 -51 -72 -68q-72 10 -72 72q15 68 60 68zM292 868l4 -8v-212q0 -28 2 -437q-2 -133 66 -155q40 -12 64 -16v-32q0 -8 -8 -8h-352q-8 0 -8 8v32q0 7 68 16q62 7 66 111q1 37 2 453q0 109 -60 140q-45 22 -76 20v32q0 14 224 52q0 4 8 4z" />
    <glyph glyph-name="j" unicode="j" horiz-adv-x="474" 
d="M242 1584h16q64 -10 64 -64v-16q0 -46 -68 -60q-72 10 -72 72q15 68 60 68zM318 864l4 -8v-1008q0 -251 -180 -320q-84 -28 -148 -28h-56q-8 0 -8 8q0 40 84 40q113 34 168 120q40 43 40 208v748q0 101 -52 128q-84 18 -84 24v32q0 13 228 52q0 4 4 4z" />
    <glyph glyph-name="k" unicode="k" horiz-adv-x="1058" 
d="M302 1640l4 -8v-1336q452 446 452 472v20q0 23 -64 32v44q1 8 8 8h224q8 -1 8 -8v-36q-69 -37 -148 -112l-208 -208q142 -56 204 -176q80 -226 132 -260q48 -26 84 -28q7 4 16 4l4 -8v-32q0 -8 -8 -8h-68q-213 0 -248 192q-45 175 -152 248q-5 0 -24 12
q-204 -192 -204 -236q-8 -29 -8 -60q0 -77 80 -104q56 -3 56 -12v-32q0 -8 -8 -8h-356q-8 0 -8 8v32q0 7 68 16q68 29 68 136q-4 66 -4 100v1008q0 40 4 96q0 118 -72 140q-64 9 -64 16v36q0 11 232 52z" />
    <glyph glyph-name="l" unicode="l" horiz-adv-x="453" 
d="M272 1640l4 -8v-1388q0 -17 6 -82.5t58 -101.5q13 -9 68 -16v-36q0 -8 -8 -8h-352q-8 0 -8 8v32q43 2 86.5 22.5t45.5 181.5l4 1148q-9 140 -136 156v40q0 11 232 52z" />
    <glyph glyph-name="m" unicode="m" horiz-adv-x="1674" 
d="M292 872l4 -8v-116q150 124 300 124h36q161 0 236 -132h4q146 132 304 132h44q284 0 284 -424q-4 -100 -4 -200q0 -26 -4 -52q9 -140 80 -140q56 -10 56 -16v-32q0 -8 -8 -8h-356q-8 0 -8 8v32q0 5 84 20q52 35 52 112v152q0 388 -164 464q-51 20 -104 24
q-136 0 -196 -148q-20 -56 -20 -188q4 -200 4 -292q10 -128 76 -128q60 -10 60 -16v-32q0 -8 -8 -8h-356q-8 0 -8 8v32q0 7 68 16q68 20 68 144v112q0 392 -156 472q-60 28 -124 28h-8q-129 0 -232 -128v-512q0 -83 56 -112q80 -15 80 -20v-32q0 -8 -8 -8h-356q-8 0 -8 8v32
q0 6 80 20q56 35 56 136v428q0 148 -104 148h-24q-8 0 -8 8v36q0 11 232 56z" />
    <glyph glyph-name="n" unicode="n" horiz-adv-x="1088" 
d="M292 872l4 -8v-116q152 124 300 124h44q284 0 284 -428l-8 -252q9 -140 92 -140q44 -4 44 -12v-32q0 -8 -8 -8h-356q-8 0 -8 8v32q0 5 80 20q56 31 56 112v140q0 403 -160 472q-50 28 -120 28q-139 0 -240 -128v-512q0 -128 136 -128v-36q0 -8 -8 -8h-356q-8 0 -8 8v32
q0 6 80 20q56 25 56 172v340q0 161 -44 180q-37 20 -60 20h-24q-8 0 -8 8v36q0 13 224 52q0 4 8 4z" />
    <glyph glyph-name="o" unicode="o" horiz-adv-x="1003" 
d="M488 868h44q221 0 368 -232q48 -99 48 -188v-40q0 -218 -224 -368q-106 -60 -204 -60h-44q-221 0 -364 228q-52 91 -52 204v28q0 234 256 388q101 40 172 40zM196 428v-36q0 -352 300 -352h20q296 0 296 380v36q0 364 -300 364h-8q-308 0 -308 -392z" />
    <glyph glyph-name="p" unicode="p" horiz-adv-x="1053" 
d="M268 864l4 -8v-136q142 144 296 144h32q215 0 352 -240q40 -101 40 -180v-36q0 -232 -220 -380q-100 -56 -200 -56q-166 0 -300 140v-388q0 -141 52 -160q35 -15 84 -20v-36q0 -8 -8 -8h-352q-8 0 -8 8v32q0 6 80 20q52 35 52 112v976q-11 112 -80 112q-52 10 -52 16v36
q0 8 228 52zM280 404q0 -255 112 -328q72 -44 160 -44q304 0 304 388q0 396 -296 396q-203 0 -256 -188q-24 -106 -24 -224z" />
    <glyph glyph-name="q" unicode="q" horiz-adv-x="1045" 
d="M442 864h32q164 0 300 -152q38 93 48 152h40q8 -1 8 -8v-1184q0 -88 64 -116q68 -9 68 -16v-32q0 -8 -8 -8h-352q-8 0 -8 8v32q0 5 80 20q56 30 56 144v408q-134 -140 -300 -140q-245 0 -380 260q-40 86 -40 176v36q0 226 212 368q90 52 180 52zM186 424q0 -392 300 -392
q175 0 236 132q40 87 40 244q0 285 -120 368q-71 40 -160 40h-4q-292 0 -292 -392z" />
    <glyph glyph-name="r" unicode="r" horiz-adv-x="684" 
d="M292 868l4 -8v-188h4q98 180 232 180q105 -13 112 -40q-27 -108 -36 -108q-57 48 -120 48h-12q-94 0 -156 -144q-24 -56 -28 -408q0 -111 60 -140q39 -12 80 -16v-36q0 -8 -8 -8h-356q-8 0 -8 8v32q0 7 68 16q64 22 64 128l4 436q-9 140 -68 140q0 7 -68 16v40
q0 11 232 52z" />
    <glyph glyph-name="s" unicode="s" horiz-adv-x="811" 
d="M394 868h24q81 0 196 -56q22 0 28 44q22 0 44 4q8 -14 40 -236q-8 -8 -48 -12q-46 128 -132 172q-78 32 -148 32q-129 0 -160 -104q0 -10 -4 -32q0 -101 244 -152q276 -95 276 -252v-40q0 -165 -212 -244q-50 -12 -88 -12h-44q-97 0 -212 84h-20q-5 0 -24 -36h-36
q-8 0 -8 8v232q1 8 8 8h36q5 0 32 -88q85 -144 228 -144h12q156 0 220 124q8 36 8 52v8q0 117 -204 156q-332 96 -332 264q0 103 116 180q70 40 160 40z" />
    <glyph glyph-name="t" unicode="t" horiz-adv-x="605" 
d="M262 1248h36q8 -1 8 -8v-292h188q8 -1 8 -8v-44q0 -8 -8 -8h-188v-576q0 -199 212 -264q80 0 80 -44l-8 -4h-56q-176 0 -280 132q-52 69 -52 284v472h-124q-8 0 -8 8v32q0 5 64 24q120 111 120 280v8q1 8 8 8z" />
    <glyph glyph-name="u" unicode="u" horiz-adv-x="1045" 
d="M258 868l4 -8v-48q0 -573 52 -612q60 -160 228 -160h8q133 0 236 132v416q0 10 0.5 86.5t-76.5 89.5q-60 11 -60 16v36q0 10 232 52l4 -8v-656q0 -156 128 -156l4 -8v-32q0 -8 -8 -8h-216q-8 0 -8 8v100q-148 -128 -304 -128h-40q-284 0 -284 424l-2 252q-7 112 -90 112
q-36 5 -36 12v36q0 10 228 52z" />
    <glyph glyph-name="v" unicode="v" 
d="M28 858h296q8 -1 8 -8v-36q0 -8 -8 -8h-36q-52 0 -52 -44q9 -67 288 -620l40 -88h8q288 683 288 708v8q-12 36 -52 36h-36q-8 0 -8 8v36q1 8 8 8h220q8 -1 8 -8v-36q0 -7 -56 -16q-24 -1 -124 -264q-16 -30 -228 -544h-116q-18 25 -376 784q-30 36 -80 36v40q1 8 8 8z
" />
    <glyph glyph-name="w" unicode="w" horiz-adv-x="1485" 
d="M58 858h296q8 -1 8 -8v-36q0 -8 -8 -8h-36q-52 0 -52 -48q0 -37 264 -572q4 -3 64 -132h8q100 246 136 324q-141 303 -192 400q-27 32 -76 32v40q1 8 8 8h296q8 -1 8 -8v-36q0 -8 -8 -8h-36q-52 0 -52 -44q0 -46 276 -596q52 -116 60 -116q284 683 284 696l4 24
q-12 36 -52 36h-36q-8 0 -8 8v36q1 8 8 8h220q8 -1 8 -8v-36q0 -7 -56 -16q-24 -1 -124 -264q-16 -31 -228 -544h-116q-15 17 -160 332h-8l-136 -332h-116q-60 108 -360 756q-31 64 -96 64v40q1 8 8 8z" />
    <glyph glyph-name="x" unicode="x" horiz-adv-x="1088" 
d="M58 868h300q8 -1 8 -8v-32q0 -6 -44 -16q-8 -13 -8 -24q0 -39 124 -160q141 -148 144 -148q249 262 252 280q17 55 -60 60v40q1 8 8 8h224q8 -1 8 -8v-32q-62 -33 -152 -116l-256 -256q363 -396 404 -396q52 -13 52 -20v-32q0 -8 -8 -8h-300q-8 0 -8 8v32q0 5 48 20l4 20
q0 50 -264 304q-256 -243 -256 -276q-4 -16 -4 -28q0 -23 64 -32v-40q0 -8 -8 -8h-224q-8 0 -8 8v32q58 32 112 80l300 292q-366 389 -400 392q-60 19 -60 24v32q1 8 8 8z" />
    <glyph glyph-name="y" unicode="y" 
d="M48 864h296q8 -1 8 -8v-36q0 -8 -8 -8h-36q-52 0 -52 -48q0 -41 280 -600l28 -64h4q244 576 272 664v12q-12 36 -52 36h-36q-8 0 -8 8v36q1 8 8 8h220q8 -1 8 -8v-36q0 -6 -48 -16q-21 -11 -120 -268q-288 -701 -364 -848q-139 -188 -324 -188h-24q-17 0 -20 64v24
q0 12 144 20q131 36 176 104q91 187 96 244q0 44 -300 664q-77 192 -124 192q-32 0 -32 8v36q1 8 8 8z" />
    <glyph glyph-name="z" unicode="z" horiz-adv-x="917" 
d="M114 868h712q8 -1 8 -8v-36q-126 -117 -272 -316l-348 -464q198 4 308 4h32q183 0 228 76q15 27 28 96h28q8 -1 8 -8v-204q0 -8 -8 -8h-760q-8 0 -8 8v28q0 16 132 188l436 592h-312q-125 0 -156 -60q-15 -28 -24 -108h-32q-8 0 -8 8v204q1 8 8 8z" />
    <glyph glyph-name="braceleft" unicode="{" horiz-adv-x="485" 
d="M99 710q7 21 23 27q30 7 54 61q24 51 30 118q6 77 -32 228q-34 130 -24 245q11 141 78 231.5t144 90.5q19 0 16 -27q-5 -61 -19 -65q-75 -22 -87 -173q-7 -90 25 -238q33 -144 26 -233q-13 -153 -84 -241q-27 -33 -53 -53q26 -21 53 -54q71 -88 84 -241q7 -91 -26 -233
q-32 -148 -25 -238q12 -152 87 -173q14 -4 19 -65q3 -27 -16 -27q-77 0 -144 90.5t-78 231.5q-10 115 24 245q38 151 32 228q-6 67 -30 118q-24 54 -54 61q-16 5 -23 27q-5 8 -4 29q-2 22 4 30z" />
    <glyph glyph-name="bar" unicode="|" 
d="M468 1511h89v-1909h-89v1909z" />
    <glyph glyph-name="braceright" unicode="}" horiz-adv-x="485" 
d="M383 710q6 -8 4 -30q2 -21 -4 -29q-6 -22 -23 -27q-30 -7 -54 -61q-24 -51 -30 -118q-6 -77 32 -228q34 -130 24 -245q-11 -141 -78 -231.5t-144 -90.5q-19 0 -16 27q5 61 19 65q75 21 87 173q7 90 -25 238q-33 142 -26 233q13 153 84 241q27 33 54 54q-27 20 -54 53
q-71 88 -84 241q-7 89 26 233q32 148 25 238q-12 151 -87 173q-14 4 -19 65q-3 27 16 27q77 0 144 -90.5t78 -231.5q10 -115 -24 -245q-38 -151 -32 -228q6 -67 30 -118q24 -54 54 -61q16 -6 23 -27z" />
    <glyph glyph-name="asciitilde" unicode="~" horiz-adv-x="1064" 
d="M387 677q66 0 171 -57q108 -56 174 -56q111 0 127 94q2 18 47 18q20 0 20 -23q0 -101 -66 -178t-170 -77q-84 0 -179 57q-111 64 -167 64q-49 0 -86 -26q-39 -26 -45 -64q-6 -30 -36 -30t-30 21q0 90 64 173.5t176 83.5z" />
    <glyph glyph-name="Adieresis" unicode="&#xc4;" horiz-adv-x="1206" 
d="M604 1344q8 -7 176 -468q264 -734 296 -800q31 -40 92 -40v-28q0 -8 -8 -8h-348q-8 0 -8 8v24q1 8 8 8h32q72 0 72 56q-85 256 -96 256h-584q-88 -238 -88 -256v-4q0 -52 60 -52h44q8 -1 8 -8v-24q0 -8 -8 -8h-244q-8 0 -8 8v24q0 7 64 16q32 17 76 140q0 11 420 1156h44
zM528 1156q0 -8 -276 -764h556v4l-276 760h-4zM753 1599q28 0 49 -20t21 -50q0 -29 -20.5 -49.5t-49.5 -20.5q-28 0 -49 20.5t-21 49.5q0 28 21 49t49 21zM420 1599q28 0 49 -20t21 -50q0 -29 -20.5 -49.5t-49.5 -20.5q-28 0 -49 20.5t-21 49.5q0 28 21 49t49 21z" />
    <glyph glyph-name="Aring" unicode="&#xc5;" horiz-adv-x="1408" 
d="M732 1278q106 -231 281 -726q127 -355 174 -435.5t151 -89.5q33 -3 33 -22q0 -14 -17 -14l-14 1q-92 8 -234 8q-218 0 -280 -7q-31 0 -31 18q0 13 23 16q85 8 117.5 29t32.5 66q0 43 -61 215l-59 172q-52 0 -465 -6q-104 -277 -104 -349q0 -61 51.5 -90.5t101.5 -32.5
q37 -3 37 -23q0 -8 -12 -15q-160 7 -193 7q-168 0 -226 -4q-32 0 -32 18q0 16 28 20q115 15 176 156t190 507q115 324 232 582q-58 18 -94.5 67t-36.5 109q0 75 54 129t129 54q76 0 130 -54t54 -129q0 -61 -37.5 -111t-98.5 -66zM684 1575q-49 0 -84.5 -35.5t-35.5 -84.5
q0 -50 35.5 -85t84.5 -35q50 0 85 35t35 85q0 51 -35.5 85.5t-84.5 34.5zM618 1117q-93 -190 -217 -552q103 5 148 5l281 -5q-37 104 -104 276q-82 205 -108 276z" />
    <glyph glyph-name="Ccedilla" unicode="&#xc7;" horiz-adv-x="1153" 
d="M624 1382h48q148 0 303 -130q26 -12 36 -12h15q34 0 52 59h27q8 -1 8 -8v-347q0 -7 -8 -7h-23q-10 0 -32 114q-110 272 -378 272q-321 0 -387 -442q-12 -108 -12 -189v-79q0 -422 213 -560q77 -43 178 -43q275 0 425 327q32 -11 32 -23q-104 -233 -311 -331
q-89 -32 -150 -32h-51q-187 0 -363 221q-146 208 -146 465v67q-10 280 170 477q180 201 354 201zM635 12q42 -9 51 -9q0 -17 -47 -131h33q126 -10 126 -74v-19q0 -92 -159 -126h-37q-121 8 -130 33q7 0 23 28q3 0 28 -5q149 18 149 89v9q0 23 -75 28l-23 -5l-19 24
q64 158 80 158z" />
    <glyph glyph-name="Eacute" unicode="&#xc9;" horiz-adv-x="1032" 
d="M68 1344h872q8 -1 8 -8v-204q0 -8 -8 -8h-24q-5 0 -20 68q-32 59 -120 88q-100 24 -180 24h-184q-87 0 -108 -52q-24 -66 -24 -152v-388h240q120 0 120 92q1 20 12 20h24q8 -1 8 -8v-284q0 -8 -8 -8h-24q-11 0 -20 68q-30 44 -92 44h-260v-392q0 -204 112 -204h204
q223 0 296 104q12 30 20 76h28q8 -1 8 -8v-204q0 -8 -8 -8h-872q-8 0 -8 8v24q0 6 52 20q56 49 56 188v864q0 160 -72 196q-36 3 -36 12v24q1 8 8 8zM655 1706h16q64 -10 64 -64v-16q0 -32 -140 -148q-84 -88 -104 -88h-24q-6 0 -28 28v24q0 21 188 256z" />
    <glyph glyph-name="Ntilde" unicode="&#xd1;" horiz-adv-x="1142" 
d="M68 1344h244q59 -91 632 -1112h4v932q0 128 -44 128q-18 11 -68 16v28q1 8 8 8h244q8 -1 8 -8v-24q0 -7 -64 -16q-44 -29 -44 -96v-1192q0 -8 -8 -8h-64q-20 24 -704 1236h-4v-1056q0 -128 44 -128q18 -11 68 -16v-28q0 -8 -8 -8h-244q-8 0 -8 8v24q0 7 64 16
q44 29 44 96v1056q0 82 -60 100q-48 3 -48 12v24q1 8 8 8zM475 1665q43 0 112 -37q71 -37 114 -37q72 0 83 61q2 12 31 12q13 0 13 -15q0 -66 -43.5 -116.5t-110.5 -50.5q-56 0 -118 37q-72 42 -109 42q-32 0 -57 -17t-29 -42q-3 -19 -23 -19t-20 14q0 59 42 113.5t115 54.5
z" />
    <glyph glyph-name="Odieresis" unicode="&#xd6;" horiz-adv-x="1218" 
d="M596 1382h56q160 0 320 -196q156 -221 156 -496v-60q0 -330 -236 -584q-145 -116 -260 -116h-56q-160 0 -320 196q-156 221 -156 496v60q0 330 236 584q145 116 260 116zM244 642q0 -652 372 -652q368 0 368 680q0 652 -372 652q-368 0 -368 -680zM785 1599q28 0 49 -20
t21 -50q0 -29 -20.5 -49.5t-49.5 -20.5q-28 0 -49 20.5t-21 49.5q0 28 21 49t49 21zM452 1599q28 0 49 -20t21 -50q0 -29 -20.5 -49.5t-49.5 -20.5q-28 0 -49 20.5t-21 49.5q0 28 21 49t49 21z" />
    <glyph glyph-name="Udieresis" unicode="&#xdc;" horiz-adv-x="1300" 
d="M78 1340h316q8 -1 8 -8v-24q0 -7 -64 -16q-48 -26 -48 -88q-8 -505 -8 -764q0 -460 368 -460q312 0 416 300q24 70 24 288v604q0 112 -40 112q-30 20 -72 20v28q1 8 8 8h244q8 -1 8 -8v-24q0 -7 -64 -16q-44 -29 -44 -96v-588q0 -328 -60 -416q-151 -252 -400 -252h-52
q-230 0 -376 232q-72 125 -72 396q8 303 8 652q-19 80 -80 80q-28 0 -28 8v24q1 8 8 8zM833 1599q28 0 49 -20t21 -50q0 -29 -20.5 -49.5t-49.5 -20.5q-28 0 -49 20.5t-21 49.5q0 28 21 49t49 21zM500 1599q28 0 49 -20t21 -50q0 -29 -20.5 -49.5t-49.5 -20.5
q-28 0 -49 20.5t-21 49.5q0 28 21 49t49 21z" />
    <glyph glyph-name="aacute" unicode="&#xe1;" horiz-adv-x="896" 
d="M404 872h40q190 0 288 -176q32 -83 32 -172q-8 -139 -8 -300q0 -117 64 -160q64 -19 64 -24v-32q0 -8 -8 -8h-216q-8 0 -8 8v116q-137 -144 -312 -144h-40q-188 0 -272 156q-8 36 -8 52v20q0 136 144 224q99 46 328 112q148 61 148 104q0 81 -152 152q-43 12 -72 12h-20
q-136 0 -240 -220h-4q-24 0 -72 52q30 105 128 168q99 60 196 60zM152 216v-8q0 -132 196 -168h44q146 0 244 164q20 51 20 92v80q0 72 -4 196q-4 8 -4 12q-62 -58 -352 -176q-144 -91 -144 -192zM563 1496h16q64 -10 64 -64v-16q0 -32 -140 -148q-84 -88 -104 -88h-24
q-6 0 -28 28v24q0 21 188 256z" />
    <glyph glyph-name="agrave" unicode="&#xe0;" horiz-adv-x="896" 
d="M404 872h40q190 0 288 -176q32 -83 32 -172q-8 -139 -8 -300q0 -117 64 -160q64 -19 64 -24v-32q0 -8 -8 -8h-216q-8 0 -8 8v116q-137 -144 -312 -144h-40q-188 0 -272 156q-8 36 -8 52v20q0 136 144 224q99 46 328 112q148 61 148 104q0 81 -152 152q-43 12 -72 12h-20
q-136 0 -240 -220h-4q-24 0 -72 52q30 105 128 168q99 60 196 60zM152 216v-8q0 -132 196 -168h44q146 0 244 164q20 51 20 92v80q0 72 -4 196q-4 8 -4 12q-62 -58 -352 -176q-144 -91 -144 -192zM367 1496l28 -8q188 -235 188 -256v-24q-22 -28 -28 -28h-24q-20 0 -104 88
q-140 116 -140 148v16q0 54 64 64h16z" />
    <glyph glyph-name="acircumflex" unicode="&#xe2;" horiz-adv-x="896" 
d="M404 872h40q190 0 288 -176q32 -83 32 -172q-8 -139 -8 -300q0 -117 64 -160q64 -19 64 -24v-32q0 -8 -8 -8h-216q-8 0 -8 8v116q-137 -144 -312 -144h-40q-188 0 -272 156q-8 36 -8 52v20q0 136 144 224q99 46 328 112q148 61 148 104q0 81 -152 152q-43 12 -72 12h-20
q-136 0 -240 -220h-4q-24 0 -72 52q30 105 128 168q99 60 196 60zM152 216v-8q0 -132 196 -168h44q146 0 244 164q20 51 20 92v80q0 72 -4 196q-4 8 -4 12q-62 -58 -352 -176q-144 -91 -144 -192zM397 1335h92l159 -291q10 -18 10 -26q0 -13 -13 -13q-8 0 -18 13
q-4 5 -11 11l-173 180l-171 -180q-23 -23 -30 -23q-17 0 -17 13q0 4 11 25z" />
    <glyph glyph-name="adieresis" unicode="&#xe4;" horiz-adv-x="896" 
d="M404 872h40q190 0 288 -176q32 -83 32 -172q-8 -139 -8 -300q0 -117 64 -160q64 -19 64 -24v-32q0 -8 -8 -8h-216q-8 0 -8 8v116q-137 -144 -312 -144h-40q-188 0 -272 156q-8 36 -8 52v20q0 136 144 224q99 46 328 112q148 61 148 104q0 81 -152 152q-43 12 -72 12h-20
q-136 0 -240 -220h-4q-24 0 -72 52q30 105 128 168q99 60 196 60zM152 216v-8q0 -132 196 -168h44q146 0 244 164q20 51 20 92v80q0 72 -4 196q-4 8 -4 12q-62 -58 -352 -176q-144 -91 -144 -192zM610 1128q28 0 49 -20t21 -50q0 -29 -20.5 -49.5t-49.5 -20.5
q-28 0 -49 20.5t-21 49.5q0 28 21 49t49 21zM277 1128q28 0 49 -20t21 -50q0 -29 -20.5 -49.5t-49.5 -20.5q-28 0 -49 20.5t-21 49.5q0 28 21 49t49 21z" />
    <glyph glyph-name="atilde" unicode="&#xe3;" horiz-adv-x="896" 
d="M404 872h40q190 0 288 -176q32 -83 32 -172q-8 -139 -8 -300q0 -117 64 -160q64 -19 64 -24v-32q0 -8 -8 -8h-216q-8 0 -8 8v116q-137 -144 -312 -144h-40q-188 0 -272 156q-8 36 -8 52v20q0 136 144 224q99 46 328 112q148 61 148 104q0 81 -152 152q-43 12 -72 12h-20
q-136 0 -240 -220h-4q-24 0 -72 52q30 105 128 168q99 60 196 60zM152 216v-8q0 -132 196 -168h44q146 0 244 164q20 51 20 92v80q0 72 -4 196q-4 8 -4 12q-62 -58 -352 -176q-144 -91 -144 -192zM354 1165q43 0 112 -37q71 -37 114 -37q72 0 83 61q2 12 31 12q13 0 13 -15
q0 -66 -43.5 -116.5t-110.5 -50.5q-56 0 -118 37q-72 42 -109 42q-32 0 -57 -17t-29 -42q-3 -19 -23 -19t-20 14q0 59 42 113.5t115 54.5z" />
    <glyph glyph-name="aring" unicode="&#xe5;" horiz-adv-x="896" 
d="M404 872h40q190 0 288 -176q32 -83 32 -172q-8 -139 -8 -300q0 -117 64 -160q64 -19 64 -24v-32q0 -8 -8 -8h-216q-8 0 -8 8v116q-137 -144 -312 -144h-40q-188 0 -272 156q-8 36 -8 52v20q0 136 144 224q99 46 328 112q148 61 148 104q0 81 -152 152q-43 12 -72 12h-20
q-136 0 -240 -220h-4q-24 0 -72 52q30 105 128 168q99 60 196 60zM152 216v-8q0 -132 196 -168h44q146 0 244 164q20 51 20 92v80q0 72 -4 196q-4 8 -4 12q-62 -58 -352 -176q-144 -91 -144 -192zM442 1284q66 0 114 -46.5t48 -115.5q0 -66 -47.5 -113.5t-114.5 -47.5
t-114 47.5t-47 113.5q0 69 48 115.5t113 46.5zM442 1221q-40 0 -69 -29t-29 -70t29 -69.5t69 -28.5q41 0 70 29t29 69q0 41 -29 70t-70 29z" />
    <glyph glyph-name="ccedilla" unicode="&#xe7;" horiz-adv-x="853" 
d="M460 868h36q206 0 312 -212v-16q-52 -52 -72 -52q-42 104 -100 152q-91 76 -180 76q-169 0 -248 -248q-20 -57 -20 -148q0 -270 208 -360q58 -16 112 -20q140 0 236 124q10 0 52 -12v-8q-98 -164 -284 -164h-20q-196 0 -340 172q-92 123 -92 264v36q0 233 216 368
q89 48 184 48zM459 12q42 -9 51 -9q0 -17 -47 -131h33q126 -10 126 -74v-19q0 -92 -159 -126h-37q-121 8 -130 33q7 0 23 28q3 0 28 -5q149 18 149 89v9q0 23 -75 28l-23 -5l-19 24q64 158 80 158z" />
    <glyph glyph-name="eacute" unicode="&#xe9;" horiz-adv-x="875" 
d="M454 868h32q206 0 308 -192q35 -83 36 -136v-36q-18 -96 -172 -96q-34 -4 -116 -4h-364q0 -253 212 -344q50 -16 108 -20q139 0 236 124q10 0 52 -12v-8q-99 -164 -284 -164h-20q-196 0 -340 172q-92 123 -92 264v36q0 245 236 380q89 36 168 36zM178 452h428
q128 0 128 100q0 147 -188 244q-58 20 -100 20q-167 0 -248 -244q-20 -79 -20 -120zM572 1496h16q64 -10 64 -64v-16q0 -32 -140 -148q-84 -88 -104 -88h-24q-6 0 -28 28v24q0 21 188 256z" />
    <glyph glyph-name="egrave" unicode="&#xe8;" horiz-adv-x="875" 
d="M454 868h32q206 0 308 -192q35 -83 36 -136v-36q-18 -96 -172 -96q-34 -4 -116 -4h-364q0 -253 212 -344q50 -16 108 -20q139 0 236 124q10 0 52 -12v-8q-99 -164 -284 -164h-20q-196 0 -340 172q-92 123 -92 264v36q0 245 236 380q89 36 168 36zM178 452h428
q128 0 128 100q0 147 -188 244q-58 20 -100 20q-167 0 -248 -244q-20 -79 -20 -120zM279 1496l28 -8q188 -235 188 -256v-24q-22 -28 -28 -28h-24q-20 0 -104 88q-140 116 -140 148v16q0 54 64 64h16z" />
    <glyph glyph-name="ecircumflex" unicode="&#xea;" horiz-adv-x="875" 
d="M454 868h32q206 0 308 -192q35 -83 36 -136v-36q-18 -96 -172 -96q-34 -4 -116 -4h-364q0 -253 212 -344q50 -16 108 -20q139 0 236 124q10 0 52 -12v-8q-99 -164 -284 -164h-20q-196 0 -340 172q-92 123 -92 264v36q0 245 236 380q89 36 168 36zM178 452h428
q128 0 128 100q0 147 -188 244q-58 20 -100 20q-167 0 -248 -244q-20 -79 -20 -120zM402 1335h92l159 -291q10 -18 10 -26q0 -13 -13 -13q-8 0 -18 13q-4 5 -11 11l-173 180l-171 -180q-23 -23 -30 -23q-17 0 -17 13q0 4 11 25z" />
    <glyph glyph-name="edieresis" unicode="&#xeb;" horiz-adv-x="875" 
d="M454 868h32q206 0 308 -192q35 -83 36 -136v-36q-18 -96 -172 -96q-34 -4 -116 -4h-364q0 -253 212 -344q50 -16 108 -20q139 0 236 124q10 0 52 -12v-8q-99 -164 -284 -164h-20q-196 0 -340 172q-92 123 -92 264v36q0 245 236 380q89 36 168 36zM178 452h428
q128 0 128 100q0 147 -188 244q-58 20 -100 20q-167 0 -248 -244q-20 -79 -20 -120zM605 1128q28 0 49 -20t21 -50q0 -29 -20.5 -49.5t-49.5 -20.5q-28 0 -49 20.5t-21 49.5q0 28 21 49t49 21zM272 1128q28 0 49 -20t21 -50q0 -29 -20.5 -49.5t-49.5 -20.5q-28 0 -49 20.5
t-21 49.5q0 28 21 49t49 21z" />
    <glyph glyph-name="iacute" unicode="&#xed;" horiz-adv-x="533" 
d="M333 1496h16q64 -10 64 -64v-16q0 -32 -140 -148q-84 -88 -104 -88h-24q-6 0 -28 28v24q0 21 188 256zM302 868l4 -8v-212q0 -28 2 -437q-2 -133 66 -155q40 -12 64 -16v-32q0 -8 -8 -8h-352q-8 0 -8 8v32q0 7 68 16q62 7 66 111q1 37 2 453q0 109 -60 140q-45 22 -76 20
v32q0 14 224 52q0 4 8 4z" />
    <glyph glyph-name="igrave" unicode="&#xec;" horiz-adv-x="533" 
d="M138 1496l28 -8q188 -235 188 -256v-24q-22 -28 -28 -28h-24q-20 0 -104 88q-140 116 -140 148v16q0 54 64 64h16zM322 868l4 -8v-212q0 -28 2 -437q-2 -133 66 -155q40 -12 64 -16v-32q0 -8 -8 -8h-352q-8 0 -8 8v32q0 7 68 16q62 7 66 111q1 37 2 453q0 109 -60 140
q-45 22 -76 20v32q0 14 224 52q0 4 8 4z" />
    <glyph glyph-name="icircumflex" unicode="&#xee;" horiz-adv-x="533" 
d="M204 1335h92l159 -291q10 -18 10 -26q0 -13 -13 -13q-8 0 -18 13q-4 5 -11 11l-173 180l-171 -180q-23 -23 -30 -23q-17 0 -17 13q0 4 11 25zM312 868l4 -8v-212q0 -28 2 -437q-2 -133 66 -155q40 -12 64 -16v-32q0 -8 -8 -8h-352q-8 0 -8 8v32q0 7 68 16q62 7 66 111
q1 37 2 453q0 109 -60 140q-45 22 -76 20v32q0 14 224 52q0 4 8 4z" />
    <glyph glyph-name="idieresis" unicode="&#xef;" horiz-adv-x="533" 
d="M439 1128q28 0 49 -20t21 -50q0 -29 -20.5 -49.5t-49.5 -20.5t-49.5 20.5t-20.5 49.5q0 28 20.5 49t49.5 21zM106 1128q28 0 49 -20t21 -50q0 -29 -20.5 -49.5t-49.5 -20.5t-49.5 20.5t-20.5 49.5q0 28 20.5 49t49.5 21zM342 868l4 -8v-212q0 -28 2 -437q-2 -133 66 -155
q40 -12 64 -16v-32q0 -8 -8 -8h-352q-8 0 -8 8v32q0 7 68 16q62 7 66 111q1 37 2 453q0 109 -60 140q-45 22 -76 20v32q0 14 224 52q0 4 8 4z" />
    <glyph glyph-name="ntilde" unicode="&#xf1;" horiz-adv-x="1088" 
d="M292 872l4 -8v-116q152 124 300 124h44q284 0 284 -428l-8 -252q9 -140 92 -140q44 -4 44 -12v-32q0 -8 -8 -8h-356q-8 0 -8 8v32q0 5 80 20q56 31 56 112v140q0 403 -160 472q-50 28 -120 28q-139 0 -240 -128v-512q0 -128 136 -128v-36q0 -8 -8 -8h-356q-8 0 -8 8v32
q0 6 80 20q56 25 56 172v340q0 161 -44 180q-37 20 -60 20h-24q-8 0 -8 8v36q0 13 224 52q0 4 8 4zM464 1165q43 0 112 -37q71 -37 114 -37q72 0 83 61q2 12 31 12q13 0 13 -15q0 -66 -43.5 -116.5t-110.5 -50.5q-56 0 -118 37q-72 42 -109 42q-32 0 -57 -17t-29 -42
q-3 -19 -23 -19t-20 14q0 59 42 113.5t115 54.5z" />
    <glyph glyph-name="oacute" unicode="&#xf3;" horiz-adv-x="1003" 
d="M488 868h44q221 0 368 -232q48 -99 48 -188v-40q0 -218 -224 -368q-106 -60 -204 -60h-44q-221 0 -364 228q-52 91 -52 204v28q0 234 256 388q101 40 172 40zM196 428v-36q0 -352 300 -352h20q296 0 296 380v36q0 364 -300 364h-8q-308 0 -308 -392zM626 1496h16
q64 -10 64 -64v-16q0 -32 -140 -148q-84 -88 -104 -88h-24q-6 0 -28 28v24q0 21 188 256z" />
    <glyph glyph-name="ograve" unicode="&#xf2;" horiz-adv-x="1003" 
d="M488 868h44q221 0 368 -232q48 -99 48 -188v-40q0 -218 -224 -368q-106 -60 -204 -60h-44q-221 0 -364 228q-52 91 -52 204v28q0 234 256 388q101 40 172 40zM196 428v-36q0 -352 300 -352h20q296 0 296 380v36q0 364 -300 364h-8q-308 0 -308 -392zM386 1496l28 -8
q188 -235 188 -256v-24q-22 -28 -28 -28h-24q-20 0 -104 88q-140 116 -140 148v16q0 54 64 64h16z" />
    <glyph glyph-name="ocircumflex" unicode="&#xf4;" horiz-adv-x="1003" 
d="M488 868h44q221 0 368 -232q48 -99 48 -188v-40q0 -218 -224 -368q-106 -60 -204 -60h-44q-221 0 -364 228q-52 91 -52 204v28q0 234 256 388q101 40 172 40zM196 428v-36q0 -352 300 -352h20q296 0 296 380v36q0 364 -300 364h-8q-308 0 -308 -392zM466 1335h92
l159 -291q10 -18 10 -26q0 -13 -13 -13q-8 0 -18 13q-4 5 -11 11l-173 180l-171 -180q-23 -23 -30 -23q-17 0 -17 13q0 4 11 25z" />
    <glyph glyph-name="odieresis" unicode="&#xf6;" horiz-adv-x="1003" 
d="M488 868h44q221 0 368 -232q48 -99 48 -188v-40q0 -218 -224 -368q-106 -60 -204 -60h-44q-221 0 -364 228q-52 91 -52 204v28q0 234 256 388q101 40 172 40zM196 428v-36q0 -352 300 -352h20q296 0 296 380v36q0 364 -300 364h-8q-308 0 -308 -392zM669 1128
q28 0 49 -20t21 -50q0 -29 -20.5 -49.5t-49.5 -20.5q-28 0 -49 20.5t-21 49.5q0 28 21 49t49 21zM336 1128q28 0 49 -20t21 -50q0 -29 -20.5 -49.5t-49.5 -20.5q-28 0 -49 20.5t-21 49.5q0 28 21 49t49 21z" />
    <glyph glyph-name="otilde" unicode="&#xf5;" horiz-adv-x="1003" 
d="M488 868h44q221 0 368 -232q48 -99 48 -188v-40q0 -218 -224 -368q-106 -60 -204 -60h-44q-221 0 -364 228q-52 91 -52 204v28q0 234 256 388q101 40 172 40zM196 428v-36q0 -352 300 -352h20q296 0 296 380v36q0 364 -300 364h-8q-308 0 -308 -392zM407 1165
q43 0 112 -37q71 -37 114 -37q72 0 83 61q2 12 31 12q13 0 13 -15q0 -66 -43.5 -116.5t-110.5 -50.5q-56 0 -118 37q-72 42 -109 42q-32 0 -57 -17t-29 -42q-3 -19 -23 -19t-20 14q0 59 42 113.5t115 54.5z" />
    <glyph glyph-name="uacute" unicode="&#xfa;" horiz-adv-x="1045" 
d="M258 868l4 -8v-48q0 -573 52 -612q60 -160 228 -160h8q133 0 236 132v416q0 10 0.5 86.5t-76.5 89.5q-60 11 -60 16v36q0 10 232 52l4 -8v-656q0 -156 128 -156l4 -8v-32q0 -8 -8 -8h-216q-8 0 -8 8v100q-148 -128 -304 -128h-40q-284 0 -284 424l-2 252q-7 112 -90 112
q-36 5 -36 12v36q0 10 228 52zM618 1496h16q64 -10 64 -64v-16q0 -32 -140 -148q-84 -88 -104 -88h-24q-6 0 -28 28v24q0 21 188 256z" />
    <glyph glyph-name="ugrave" unicode="&#xf9;" horiz-adv-x="1045" 
d="M258 868l4 -8v-48q0 -573 52 -612q60 -160 228 -160h8q133 0 236 132v416q0 10 0.5 86.5t-76.5 89.5q-60 11 -60 16v36q0 10 232 52l4 -8v-656q0 -156 128 -156l4 -8v-32q0 -8 -8 -8h-216q-8 0 -8 8v100q-148 -128 -304 -128h-40q-284 0 -284 424l-2 252q-7 112 -90 112
q-36 5 -36 12v36q0 10 228 52zM382 1496l28 -8q188 -235 188 -256v-24q-22 -28 -28 -28h-24q-20 0 -104 88q-140 116 -140 148v16q0 54 64 64h16z" />
    <glyph glyph-name="ucircumflex" unicode="&#xfb;" horiz-adv-x="1045" 
d="M258 868l4 -8v-48q0 -573 52 -612q60 -160 228 -160h8q133 0 236 132v416q0 10 0.5 86.5t-76.5 89.5q-60 11 -60 16v36q0 10 232 52l4 -8v-656q0 -156 128 -156l4 -8v-32q0 -8 -8 -8h-216q-8 0 -8 8v100q-148 -128 -304 -128h-40q-284 0 -284 424l-2 252q-7 112 -90 112
q-36 5 -36 12v36q0 10 228 52zM458 1335h92l159 -291q10 -18 10 -26q0 -13 -13 -13q-8 0 -18 13q-4 5 -11 11l-173 180l-171 -180q-23 -23 -30 -23q-17 0 -17 13q0 4 11 25z" />
    <glyph glyph-name="udieresis" unicode="&#xfc;" horiz-adv-x="1045" 
d="M258 868l4 -8v-48q0 -573 52 -612q60 -160 228 -160h8q133 0 236 132v416q0 10 0.5 86.5t-76.5 89.5q-60 11 -60 16v36q0 10 232 52l4 -8v-656q0 -156 128 -156l4 -8v-32q0 -8 -8 -8h-216q-8 0 -8 8v100q-148 -128 -304 -128h-40q-284 0 -284 424l-2 252q-7 112 -90 112
q-36 5 -36 12v36q0 10 228 52zM691 1128q28 0 49 -20t21 -50q0 -29 -20.5 -49.5t-49.5 -20.5q-28 0 -49 20.5t-21 49.5q0 28 21 49t49 21zM358 1128q28 0 49 -20t21 -50q0 -29 -20.5 -49.5t-49.5 -20.5q-28 0 -49 20.5t-21 49.5q0 28 21 49t49 21z" />
    <glyph glyph-name="degree" unicode="&#xb0;" horiz-adv-x="811" 
d="M405 1386q125 0 216.5 -88t91.5 -220q0 -127 -90 -217t-218 -90q-126 0 -216.5 90.5t-90.5 216.5q0 132 91.5 220t215.5 88zM405 1302q-90 0 -156.5 -63.5t-66.5 -159.5q0 -92 65 -157.5t158 -65.5t158 65.5t65 157.5q0 93 -66 158t-157 65z" />
    <glyph glyph-name="cent" unicode="&#xa2;" horiz-adv-x="899" 
d="M498 868h36q206 0 312 -212v-16q-52 -52 -72 -52q-42 104 -100 152q-91 76 -180 76q-169 0 -248 -248q-20 -57 -20 -148q0 -270 208 -360q58 -16 112 -20q140 0 236 124q10 0 52 -12v-8q-98 -164 -284 -164h-20q-196 0 -340 172q-92 123 -92 264v36q0 233 216 368
q89 48 184 48zM806 1349q8 -1 8 -8q-8 -16 -604 -1652h-60q-8 0 -8 8l604 1652h60z" />
    <glyph glyph-name="section" unicode="&#xa7;" horiz-adv-x="855" 
d="M369 1107h40q93 0 203 -63q12 -8 33 -8h7q30 0 38 53l25 3q6 0 43 -273q-9 -5 -27 -5q-66 161 -124 189q-98 71 -215 71q-184 0 -215 -159q-3 -13 -3 -31v-7q0 -121 177 -182q23 -13 213 -81q67 -29 119 -63h2v5q9 -18 41 -43q68 -87 68 -188v-15q0 -114 -86 -207
q86 -90 86 -198v-15q0 -229 -271 -313q-45 -10 -83 -10h-26q-105 0 -341 101l-15 12v228q1 5 5 5h20q6 0 23 -83q44 -125 139 -175q97 -51 192 -51h15q183 0 251 208q5 30 5 48v15q0 161 -245 225q-236 72 -301 137q-92 75 -92 167q0 147 132 227v3q-132 85 -132 197
q0 170 178 251q70 25 121 25zM174 465v-21q0 -125 233 -197q172 -62 250 -106h3q48 79 48 144v13q0 165 -243 227q-145 48 -220 81q-43 -23 -66 -106q-5 -19 -5 -35zM688 561h2v-5h-2v5z" />
    <glyph glyph-name="bullet" unicode="&#x2022;" horiz-adv-x="725" 
d="M614 677q0 -103 -74 -177t-177 -74q-104 0 -177.5 73.5t-73.5 177.5t73.5 177.5t177.5 73.5t177.5 -73.5t73.5 -177.5z" />
    <glyph glyph-name="paragraph" unicode="&#xb6;" horiz-adv-x="1472" 
d="M742 -474v730l-65 -3q-234 0 -362.5 139t-128.5 351q0 213 122 354t307.5 172.5t652.5 31.5v-34q-110 -31 -137.5 -66t-27.5 -133v-1542h-77v1714q-39 7 -70 7q-70 0 -140 -23v-1698h-74z" />
    <glyph glyph-name="registered" unicode="&#xae;" horiz-adv-x="1557" 
d="M778 1331q179 0 347 -90.5t265.5 -260t97.5 -358.5q0 -293 -208.5 -501.5t-501.5 -208.5q-292 0 -500.5 208.5t-208.5 501.5q0 294 208.5 501.5t500.5 207.5zM778 1270q-163 0 -316 -83t-242 -238t-89 -327q0 -269 189.5 -458.5t457.5 -189.5q267 0 457.5 190.5
t190.5 457.5q0 172 -89 327t-242.5 238t-316.5 83zM449 1059h364q197 0 284 -182q13 -52 13 -82q0 -149 -177 -218q-69 -22 -100 -22v-2q108 -36 168 -136q25 -58 60 -169q37 -76 90 -76l3 -6v-16q0 -6 -6 -6h-32q-126 0 -164 194q-59 215 -307 215h-52v-311q0 -57 44 -68
q32 -2 32 -8v-16q0 -6 -5 -6h-215q-6 0 -6 6v16q0 5 41 11q33 17 33 63v724q0 70 -74 70v20q1 5 6 5zM593 961v-381h68q9 0 14 3l16 -3h49q212 0 261 103q27 45 27 104v11q0 164 -149 223q-37 11 -74 11h-147q-65 0 -65 -71z" />
    <glyph glyph-name="copyright" unicode="&#xa9;" horiz-adv-x="1557" 
d="M778 1331q179 0 347 -90.5t265.5 -260t97.5 -358.5q0 -293 -208.5 -501.5t-501.5 -208.5q-292 0 -500.5 208.5t-208.5 501.5q0 294 208.5 501.5t500.5 207.5zM778 1270q-163 0 -316 -83t-242 -238t-89 -327q0 -269 189.5 -458.5t457.5 -189.5q267 0 457.5 190.5
t190.5 457.5q0 172 -89 327t-242.5 238t-316.5 83zM780 1076h30q92 0 189 -81q17 -7 22 -7h10q21 0 32 36h18q4 0 4 -4v-217q0 -5 -4 -5h-15q-6 0 -20 71q-69 170 -236 170q-201 0 -241 -275q-8 -68 -8 -119v-49q0 -263 133 -349q48 -27 111 -27q172 0 266 204q19 -7 19 -15
q-65 -145 -194 -206q-55 -20 -94 -20h-32q-116 0 -226 138q-91 130 -91 290v42q-6 174 106 298q113 125 221 125z" />
    <glyph glyph-name="trademark" unicode="&#x2122;" horiz-adv-x="1157" 
d="M63.6006 1369.63h455.413q3.59961 -0.400391 3.59961 -3.2002v-81.6045q0 -3.20117 -3.59961 -3.20117h-10.8008q-2.25 0 -9 27.2021q-13.9502 24.001 -59.4023 36.8018q-36.9004 8.00098 -104.402 8.00098h-19.8008v-456.028q0 -38.002 19.8008 -44.8027
q9.4502 -4.39941 30.6006 -6.40039v-11.2002q0 -3.2002 -3.59961 -3.2002h-142.204q-3.59961 0 -3.59961 3.2002v9.60059q0 2.7998 28.8008 6.40039q21.5996 8.80078 21.5996 51.2031v451.228h-23.4004q-127.803 0 -156.604 -38.4023q-7.20117 -14.001 -10.8008 -33.6025
h-12.6006q-3.59961 0 -3.59961 3.20117v81.6045q0.450195 3.2002 3.59961 3.2002zM544.602 1369.63h90.002q5.40039 0 45.001 -104.006q20.251 -44.8027 147.604 -358.422h1.7998q185.405 457.228 190.806 462.428h93.6016q3.60059 -0.400391 3.60059 -3.2002v-9.60059
q0 -1.59961 -30.6006 -8q-18.001 -12.001 -18.001 -30.4023v-435.227q0 -32.4023 46.8018 -36.8027q1.7998 0 1.7998 -1.59961v-9.60059q0 -3.2002 -3.60059 -3.2002h-142.203q-3.60059 0 -3.60059 3.2002v9.60059q0 2.7998 28.8008 6.40039q21.6006 8.80078 21.6006 40.002
v432.027h-1.7998q-19.8008 -52.0039 -201.605 -491.23h-18.001q-5.84961 0 -43.2012 99.2061q-10.7998 20.4014 -162.004 393.624h-1.7998v-425.626q0 -44.8027 18 -44.8027q13.9502 -8.00098 32.4014 -8.00098v-11.2002q0 -3.2002 -3.60059 -3.2002h-109.803
q-3.60059 0 -3.60059 3.2002v9.60059q0 2.7998 28.8008 6.40039q19.8008 11.6006 19.8008 38.4023v425.626q0 40.0029 -30.6006 40.0029v11.2002q0.450195 3.2002 3.60059 3.2002z" />
    <glyph glyph-name="acute" unicode="&#xb4;" horiz-adv-x="683" 
d="M416 1496h16q64 -10 64 -64v-16q0 -32 -140 -148q-84 -88 -104 -88h-24q-6 0 -28 28v24q0 21 188 256z" />
    <glyph glyph-name="dieresis" unicode="&#xa8;" horiz-adv-x="683" 
d="M509 1128q28 0 49 -20t21 -50q0 -29 -20.5 -49.5t-49.5 -20.5q-28 0 -49 20.5t-21 49.5q0 28 21 49t49 21zM176 1128q28 0 49 -20t21 -50q0 -29 -20.5 -49.5t-49.5 -20.5q-28 0 -49 20.5t-21 49.5q0 28 21 49t49 21z" />
    <glyph glyph-name="notequal" unicode="&#x2260;" horiz-adv-x="758" 
d="M108 707h524q8 -1 8 -8v-80q0 -8 -8 -8h-524q-8 0 -8 8v80q1 8 8 8zM113 475h524q8 -2 8 -8v-80q0 -8 -8 -8h-524q-8 0 -8 8v80q1 8 8 8zM700 958q8 -0.5 8 -4q-8 -8 -604 -826h-60q-8 0 -8 4l604 826h60z" />
    <glyph glyph-name="AE" unicode="&#xc6;" horiz-adv-x="1869" 
d="M1786 1636q8 -1 8 -8v-252q0 -8 -8 -8h-32q-5 0 -20 76q-72 144 -384 144h-208q-87 0 -116 -36q-44 -78 -44 -180v-508h228q192 0 192 52q10 0 24 84h36q8 -1 8 -8v-344q0 -8 -8 -8h-32q-8 0 -16 68q-23 68 -136 68h-296v-512q0 -156 80 -208q40 -8 80 -8h208
q312 0 384 144q15 76 20 76h32q8 -1 8 -8v-252q0 -8 -8 -8h-1068q-8 0 -8 8v32q0 4 60 20q76 47 76 248v120h-524q-15 -12 -112 -304v-16q0 -60 80 -60h48q8 -1 8 -8v-32q0 -8 -8 -8h-300q-8 0 -8 8v32q0 5 80 20q43 21 104 216q480 1315 500 1360h1072zM742 1584
l-408 -1108h512v852q0 208 -80 248q-13 8 -24 8z" />
    <glyph glyph-name="Oslash" unicode="&#xd8;" horiz-adv-x="1218" 
d="M596 1382h56q160 0 320 -196q156 -221 156 -496v-60q0 -330 -236 -584q-145 -116 -260 -116h-56q-160 0 -320 196q-156 221 -156 496v60q0 330 236 584q145 116 260 116zM244 642q0 -652 372 -652q368 0 368 680q0 652 -372 652q-368 0 -368 -680zM942 1560q8 -1 8 -8
q-8 -16 -604 -1652h-60q-8 0 -8 8l604 1652h60z" />
    <glyph glyph-name="infinity" unicode="&#x221e;" horiz-adv-x="1300" 
d="M62 661v48q0 186 148 280q23 13 80 20q129 0 264 -220q111 280 312 280h28q174 0 276 -204q24 -85 24 -136v-48q0 -231 -192 -356q-56 -20 -92 -20h-32q-148 0 -292 248v4h-4q-124 -200 -244 -200q-186 0 -264 220q-12 62 -12 84zM290 469q122 0 228 248
q-105 244 -232 244q-133 0 -172 -216q-4 -27 -4 -44q0 -162 136 -224q39 -8 44 -8zM890 357q200 0 252 284q0 21 4 36q0 166 -144 268q-48 32 -112 32q-151 0 -264 -324q-4 0 -12 -24q103 -272 276 -272z" />
    <glyph glyph-name="plusminus" unicode="&#xb1;" horiz-adv-x="1365" 
d="M405 288h543v-88h-543v88zM638 987h84q8 -2 8 -8v-212h212q8 -2 8 -8v-84q0 -8 -8 -8h-212v-212q0 -8 -8 -8h-84q-8 0 -8 8v212h-212q-8 0 -8 8v84q1 8 8 8h212v212q1 8 8 8z" />
    <glyph glyph-name="lessequal" unicode="&#x2264;" horiz-adv-x="1365" 
d="M1218 177l-1071 455v78l1071 453v-96l-955 -396l955 -398v-96zM146 88h1074v-88h-1074v88z" />
    <glyph glyph-name="greaterequal" unicode="&#x2265;" horiz-adv-x="1365" 
d="M147 1163l1071 -455v-79l-1071 -452v96l955 396l-955 398v96zM146 88h1074v-88h-1074v88z" />
    <glyph glyph-name="yen" unicode="&#xa5;" horiz-adv-x="899" 
d="M78.2988 1344h265.192q6.7998 -1 6.7998 -8v-24q0 -7 -54.3984 -16q-16.999 -13 -16.999 -32v-12q9.34961 -57 197.194 -364l101.997 -188h6.7998l265.192 480q10.1992 31 10.1992 56v4q0 57 -81.5977 68v28q0.850586 8 6.7998 8h244.793q6.7998 -1 6.7998 -8v-24
q0 -5 -50.998 -24q-93.4971 -89 -200.595 -288q-5.09961 -14 -183.595 -332v-500q0 -96 40.7988 -120q54.3984 -9 54.3984 -16v-24q0 -8 -6.7998 -8h-268.592q-6.7998 0 -6.7998 8v24q0 5 61.1982 20q33.999 25 33.999 120v488q0 23 -244.793 432q-135.146 216 -193.795 216
v28q0.850586 8 6.7998 8zM30 434h1048v-102h-1048v102zM30 638h1048v-102h-1048v102z" />
    <glyph glyph-name="ordfeminine" unicode="&#xaa;" horiz-adv-x="602" 
d="M273.629 1344.18h26.3994q125.395 0 190.072 -105.596q21.1191 -49.7979 21.1191 -103.196q-5.28027 -83.3965 -5.28027 -179.992q0 -70.1973 42.2383 -95.9961q42.2383 -11.3994 42.2383 -14.3994v-19.1992q0 -4.7998 -5.2793 -4.7998h-142.555
q-5.2793 0 -5.2793 4.7998v69.5967q-90.417 -86.3965 -205.912 -86.3965h-26.3984q-124.075 0 -179.513 93.5967q-5.28027 21.5986 -5.28027 31.1982v12q0 81.5967 95.0361 134.395q65.3379 27.5986 216.472 67.1973q97.6758 36.5986 97.6758 62.3975
q0 48.5977 -100.316 91.1963q-28.3779 7.19922 -47.5176 7.19922h-13.1992q-89.7568 0 -158.394 -131.994h-2.63965q-15.8398 0 -47.5186 31.1992q19.7988 62.9971 84.4766 100.795q65.3369 35.999 129.354 35.999zM107.316 950.595v-4.7998q0 -79.1973 129.354 -100.796
h29.0381q96.3564 0 161.034 98.3955q13.1992 30.5996 13.1992 55.1982v47.998q0 43.1982 -2.63965 117.595q-2.64062 4.80078 -2.64062 7.2002q-40.918 -34.7988 -232.311 -105.596q-95.0352 -54.5977 -95.0352 -115.195zM43 707h524v-102h-524v102z" />
    <glyph glyph-name="ordmasculine" unicode="&#xba;" horiz-adv-x="701" 
d="M342.066 1343.78h29.0391q145.854 0 242.87 -139.195q31.6787 -59.3975 31.6787 -112.795v-23.999q0 -130.795 -147.834 -220.791q-69.957 -35.999 -134.635 -35.999h-29.0381q-145.854 0 -240.23 136.795q-34.3184 54.5977 -34.3184 122.395v16.7998
q0 140.395 168.953 232.79q66.6572 24 113.515 24zM149.354 1079.79v-21.5986q0 -211.191 197.992 -211.191h13.1992q195.353 0 195.353 227.991v21.5986q0 218.392 -197.992 218.392h-5.2793q-203.272 0 -203.272 -235.191zM91 709h524v-102h-524v102z" />
    <glyph glyph-name="ae" unicode="&#xe6;" horiz-adv-x="1474" 
d="M404 872h40q190 0 288 -176q32 -83 32 -172q-8 -139 -8 -300q0 -117 64 -160q64 -19 64 -24v-32q0 -8 -8 -8h-216q-8 0 -8 8v116q-137 -144 -312 -144h-40q-188 0 -272 156q-8 36 -8 52v20q0 136 144 224q99 46 328 112q148 61 148 104q0 81 -152 152q-43 12 -72 12h-20
q-136 0 -240 -220h-4q-24 0 -72 52q30 105 128 168q99 60 196 60zM152 216v-8q0 -132 196 -168h44q146 0 244 164q20 51 20 92v80q0 72 -4 196q-4 8 -4 12q-62 -58 -352 -176q-144 -91 -144 -192zM1062 868h32q206 0 308 -192q35 -83 36 -136v-36q-18 -96 -172 -96
q-34 -4 -116 -4h-364q0 -253 212 -344q50 -16 108 -20q139 0 236 124q10 0 52 -12v-8q-99 -164 -284 -164h-20q-196 0 -340 172q-92 123 -92 264v36q0 245 236 380q89 36 168 36zM786 452h428q128 0 128 100q0 147 -188 244q-58 20 -100 20q-167 0 -248 -244
q-20 -79 -20 -120z" />
    <glyph glyph-name="oslash" unicode="&#xf8;" horiz-adv-x="1003" 
d="M814 736q120 -123 120 -294q0 -182 -132 -319.5t-309 -137.5q-139 0 -257 89l-136 -155l-33 27l136 157q-134 130 -134 315q0 172 127.5 308t311.5 136q152 0 273 -96l127 146l34 -29zM280 192l428 491q-80 137 -213 137q-122 0 -192.5 -116t-70.5 -271q0 -136 48 -241z
M730 640l-427 -489q81 -127 204 -127q115 0 193 113.5t78 277.5q0 119 -48 225z" />
    <glyph glyph-name="questiondown" unicode="&#xbf;" horiz-adv-x="875" 
d="M466 -553h-40q-220 0 -324 204q-32 68 -32 148v44q0 167 184 348q208 213 208 264q11 3 16 68q0 38 -44 116l40 32h4q92 -74 92 -180q0 -146 -264 -428q-96 -120 -96 -236q0 -125 128 -224q64 -40 140 -40q141 0 204 172q18 29 40 84q56 -3 56 -24q-65 -249 -84 -272
q-118 -76 -228 -76zM425 1078q30 0 51.5 -21.5t21.5 -51.5t-21.5 -51.5t-51.5 -21.5q-31 0 -52.5 21.5t-21.5 51.5t21.5 51.5t52.5 21.5z" />
    <glyph glyph-name="exclamdown" unicode="&#xa1;" horiz-adv-x="448" 
d="M226 -554h-12q-64 10 -64 64q0 248 20 1180q24 32 52 32q23 0 48 -32q20 -931 20 -1188q0 -43 -64 -56zM222 938h-4q-68 14 -68 60v16q10 64 64 64h12q64 -10 64 -64v-16q0 -46 -68 -60z" />
    <glyph glyph-name="approxequal" unicode="&#x2248;" horiz-adv-x="1064" 
d="M387 713q66 0 171 -57q108 -56 174 -56q111 0 127 94q2 18 47 18q20 0 20 -23q0 -101 -66 -178t-170 -77q-84 0 -179 57q-111 64 -167 64q-49 0 -86 -26q-39 -26 -45 -64q-6 -30 -36 -30t-30 21q0 90 64 173.5t176 83.5zM387 434q66 0 171 -57q108 -56 174 -56
q111 0 127 94q2 18 47 18q20 0 20 -23q0 -101 -66 -178t-170 -77q-84 0 -179 57q-111 64 -167 64q-49 0 -86 -26q-39 -26 -45 -64q-6 -30 -36 -30t-30 21q0 90 64 173.5t176 83.5z" />
    <glyph glyph-name="guillemotleft" unicode="&#xab;" horiz-adv-x="970" 
d="M260 419q253 -376 253 -383q0 -5 -14 -5q-9 0 -20 1q-25 19 -414 387l378 357q15 12 21 18q18 16 29 16q18 0 18 -7q0 -6 -12 -23zM654 419q253 -376 253 -383q0 -5 -14 -5q-9 0 -20 1q-25 19 -414 387l378 357q15 12 21 18q18 16 29 16q18 0 18 -7q0 -6 -12 -23z" />
    <glyph glyph-name="guillemotright" unicode="&#xbb;" horiz-adv-x="970" 
d="M317 419l-251 384q0 7 18 7q12 0 29 -16q6 -6 21 -18l378 -357q-335 -325 -414 -387q-11 -1 -20 -1q-14 0 -14 5q0 7 253 383zM711 419l-251 384q0 7 18 7q12 0 29 -16q6 -6 21 -18l378 -357q-335 -325 -414 -387q-11 -1 -20 -1q-14 0 -14 5q0 7 253 383z" />
    <glyph glyph-name="ellipsis" unicode="&#x2026;" horiz-adv-x="1563" 
d="M1272 154q28 0 49 -20t21 -50q0 -29 -20.5 -49.5t-49.5 -20.5q-28 0 -49 20.5t-21 49.5q0 28 21 49t49 21zM270 154q29 0 50 -20t21 -50q0 -29 -21 -49.5t-50 -20.5q-28 0 -48.5 20.5t-20.5 49.5q0 28 20.5 49t48.5 21zM771 154q28 0 49 -20t21 -50q0 -29 -20.5 -49.5
t-49.5 -20.5t-49.5 20.5t-20.5 49.5q0 28 20.5 49t49.5 21z" />
    <glyph glyph-name="uni00A0" unicode="&#xa0;" horiz-adv-x="512" 
 />
    <glyph glyph-name="Agrave" unicode="&#xc0;" horiz-adv-x="1206" 
d="M604 1344q8 -7 176 -468q264 -734 296 -800q31 -40 92 -40v-28q0 -8 -8 -8h-348q-8 0 -8 8v24q1 8 8 8h32q72 0 72 56q-85 256 -96 256h-584q-88 -238 -88 -256v-4q0 -52 60 -52h44q8 -1 8 -8v-24q0 -8 -8 -8h-244q-8 0 -8 8v24q0 7 64 16q32 17 76 140q0 11 420 1156h44
zM528 1156q0 -8 -276 -764h556v4l-276 760h-4zM409 1706l28 -8q188 -235 188 -256v-24q-22 -28 -28 -28h-24q-20 0 -104 88q-140 116 -140 148v16q0 54 64 64h16z" />
    <glyph glyph-name="Atilde" unicode="&#xc3;" horiz-adv-x="1206" 
d="M604 1344q8 -7 176 -468q264 -734 296 -800q31 -40 92 -40v-28q0 -8 -8 -8h-348q-8 0 -8 8v24q1 8 8 8h32q72 0 72 56q-85 256 -96 256h-584q-88 -238 -88 -256v-4q0 -52 60 -52h44q8 -1 8 -8v-24q0 -8 -8 -8h-244q-8 0 -8 8v24q0 7 64 16q32 17 76 140q0 11 420 1156h44
zM528 1156q0 -8 -276 -764h556v4l-276 760h-4zM491 1665q43 0 112 -37q71 -37 114 -37q72 0 83 61q2 12 31 12q13 0 13 -15q0 -66 -43.5 -116.5t-110.5 -50.5q-56 0 -118 37q-72 42 -109 42q-32 0 -57 -17t-29 -42q-3 -19 -23 -19t-20 14q0 59 42 113.5t115 54.5z" />
    <glyph glyph-name="Otilde" unicode="&#xd5;" horiz-adv-x="1218" 
d="M596 1382h56q160 0 320 -196q156 -221 156 -496v-60q0 -330 -236 -584q-145 -116 -260 -116h-56q-160 0 -320 196q-156 221 -156 496v60q0 330 236 584q145 116 260 116zM244 642q0 -652 372 -652q368 0 368 680q0 652 -372 652q-368 0 -368 -680zM513 1665q43 0 112 -37
q71 -37 114 -37q72 0 83 61q2 12 31 12q13 0 13 -15q0 -66 -43.5 -116.5t-110.5 -50.5q-56 0 -118 37q-72 42 -109 42q-32 0 -57 -17t-29 -42q-3 -19 -23 -19t-20 14q0 59 42 113.5t115 54.5z" />
    <glyph glyph-name="OE" unicode="&#x152;" horiz-adv-x="1656" 
d="M596 1382h56q160 0 320 -196q156 -221 156 -496v-60q0 -330 -236 -584q-145 -116 -260 -116h-56q-160 0 -320 196q-156 221 -156 496v60q0 330 236 584q145 116 260 116zM244 642q0 -652 372 -652q368 0 368 680q0 652 -372 652q-368 0 -368 -680zM892 1344h872
q8 -1 8 -8v-204q0 -8 -8 -8h-24q-5 0 -20 68q-32 59 -120 88q-100 24 -180 24h-184q-87 0 -108 -52q-24 -66 -24 -152v-388h240q120 0 120 92q1 20 12 20h24q8 -1 8 -8v-284q0 -8 -8 -8h-24q-11 0 -20 68q-30 44 -92 44h-260v-392q0 -204 112 -204h204q223 0 296 104
q12 30 20 76h28q8 -1 8 -8v-204q0 -8 -8 -8h-872q-8 0 -8 8v24q0 6 52 20q56 49 56 188v864q0 160 -72 196q-36 3 -36 12v24q1 8 8 8z" />
    <glyph glyph-name="oe" unicode="&#x153;" horiz-adv-x="1600" 
d="M868 685q139 171 314 171q139 0 243 -107.5t104 -298.5q-227 -8 -256 -8q-120 0 -319 8q-1 -31 -1 -46q0 -156 71.5 -265.5t191.5 -109.5q133 0 210 94q29 35 41 35q15 0 15 -15q0 -35 -93 -99.5t-222 -64.5q-74 0 -138 25.5t-93.5 54.5t-105.5 125q-78 -115 -181.5 -159
t-178.5 -44q-156 0 -277 129.5t-121 301.5q0 168 137 308.5t317 140.5q205 0 342 -176zM248 435q0 -120 32 -218t84.5 -146.5t129.5 -48.5q125 0 202.5 127t77.5 296q0 165 -64.5 272t-180.5 107q-148 0 -214.5 -116.5t-66.5 -272.5zM954 485q81 -1 114 -1q213 0 262 20
t49 90q0 97 -57 161t-145 64q-212 0 -223 -334z" />
    <glyph glyph-name="endash" unicode="&#x2013;" 
d="M-9.59961 485h838.387v-102h-838.387v102z" />
    <glyph glyph-name="emdash" unicode="&#x2014;" horiz-adv-x="2048" 
d="M-19.1992 485h1676.77v-102h-1676.77v102z" />
    <glyph glyph-name="quotedblleft" unicode="&#x201c;" horiz-adv-x="725" 
d="M214 1266q10 -5 19 -13q20 -21 20 -50q0 -28 -20.5 -49t-49.5 -21q-28 0 -49 20t-21 50q0 9 2 18v0q0 112 205 257q3 2 7 2t8 -2q5 0 13 -9q2 -11 -2 -17q-4 -3 -68 -54q-62 -49 -64 -132zM556 1266q10 -5 19 -13q20 -21 20 -50q0 -28 -20.5 -49t-49.5 -21q-28 0 -49 20
t-21 50q0 9 2 18v0q0 112 205 257q3 2 7 2t8 -2q5 0 13 -9q2 -11 -2 -17q-4 -3 -68 -54q-62 -49 -64 -132z" />
    <glyph glyph-name="quotedblright" unicode="&#x201d;" horiz-adv-x="725" 
d="M517 1347q-10 5 -19 14q-20 20 -20 49q0 28 20.5 49t49.5 21q28 0 49 -20t21 -50q0 -9 -2 -17v-1q0 -112 -205 -257q-3 -2 -7 -2t-8 2q-5 0 -13 9q-2 11 2 17q4 3 68 54q62 50 64 132zM175 1347q-10 5 -19 14q-20 20 -20 49q0 28 20.5 49t49.5 21q28 0 49 -20t21 -50
q0 -9 -2 -17v-1q0 -112 -205 -257q-3 -2 -7 -2t-8 2q-5 0 -13 9q-2 11 2 17q4 3 68 54q62 50 64 132z" />
    <glyph glyph-name="quoteleft" unicode="&#x2018;" horiz-adv-x="353" 
d="M167 1113q10 -5 18 -13q21 -21 21 -50q0 -28 -20.5 -49t-49.5 -21q-28 0 -49 20t-21 50q0 9 2 18v0q0 112 205 257q3 2 7 2t8 -2q5 0 13 -9q2 -11 -2 -17q-4 -3 -68 -54q-62 -49 -64 -132z" />
    <glyph glyph-name="quoteright" unicode="&#x2019;" horiz-adv-x="326" 
d="M169 1200q-10 5 -18 13q-21 20 -21 49q0 28 20.5 49t49.5 21q28 0 49 -20t21 -50q0 -9 -2 -17v-1q0 -112 -205 -257q-3 -2 -7 -2t-8 2q-5 0 -13 9q-2 11 2 17q4 3 68 54q62 50 64 133z" />
    <glyph glyph-name="divide" unicode="&#xf7;" horiz-adv-x="753" 
d="M105 576h542v-86h-542v86zM384 296q28 0 49 -20t21 -50q0 -29 -20.5 -49.5t-49.5 -20.5t-49.5 20.5t-20.5 49.5q0 28 20.5 49t49.5 21zM384 863q28 0 49 -20t21 -50q0 -29 -20.5 -49.5t-49.5 -20.5t-49.5 20.5t-20.5 49.5q0 28 20.5 49t49.5 21z" />
    <glyph glyph-name="ydieresis" unicode="&#xff;" 
d="M48 864h296q8 -1 8 -8v-36q0 -8 -8 -8h-36q-52 0 -52 -48q0 -41 280 -600l28 -64h4q244 576 272 664v12q-12 36 -52 36h-36q-8 0 -8 8v36q1 8 8 8h220q8 -1 8 -8v-36q0 -6 -48 -16q-21 -11 -120 -268q-288 -701 -364 -848q-139 -188 -324 -188h-24q-17 0 -20 64v24
q0 12 144 20q131 36 176 104q91 187 96 244q0 44 -300 664q-77 192 -124 192q-32 0 -32 8v36q1 8 8 8zM680 1128q28 0 49 -20t21 -50q0 -29 -20.5 -49.5t-49.5 -20.5q-28 0 -49 20.5t-21 49.5q0 28 21 49t49 21zM347 1128q28 0 49 -20t21 -50q0 -29 -20.5 -49.5t-49.5 -20.5
q-28 0 -49 20.5t-21 49.5q0 28 21 49t49 21z" />
    <glyph glyph-name="Ydieresis" unicode="&#x178;" horiz-adv-x="1200" 
d="M38 1344h312q8 -1 8 -8v-24q0 -7 -64 -16q-20 -13 -20 -32v-12q11 -57 232 -364l120 -188h8l312 480q12 31 12 56v4q0 57 -96 68v28q1 8 8 8h288q8 -1 8 -8v-24q0 -5 -60 -24q-110 -89 -236 -288q-6 -14 -216 -332v-500q0 -96 48 -120q64 -9 64 -16v-24q0 -8 -8 -8h-316
q-8 0 -8 8v24q0 5 72 20q40 25 40 120v488q0 23 -288 432q-159 216 -228 216v28q1 8 8 8zM764 1599q28 0 49 -20t21 -50q0 -29 -20.5 -49.5t-49.5 -20.5q-28 0 -49 20.5t-21 49.5q0 28 21 49t49 21zM431 1599q28 0 49 -20t21 -50q0 -29 -20.5 -49.5t-49.5 -20.5
q-28 0 -49 20.5t-21 49.5q0 28 21 49t49 21z" />
    <glyph glyph-name="uni2215" unicode="&#x2215;" horiz-adv-x="826" 
d="M774 1560q8 -1 8 -8q-8 -16 -604 -1652h-60q-8 0 -8 8l604 1652h60z" />
    <glyph glyph-name="Euro" unicode="&#x20ac;" horiz-adv-x="1206" 
d="M648 1382h48q148 0 303 -130q26 -12 36 -12h15q34 0 52 59h27q8 -1 8 -8v-347q0 -7 -8 -7h-23q-10 0 -32 114q-110 272 -378 272q-321 0 -387 -442q-12 -108 -12 -189v-79q0 -422 213 -560q77 -43 178 -43q275 0 425 327q32 -11 32 -23q-104 -233 -311 -331
q-89 -32 -150 -32h-51q-187 0 -363 221q-146 208 -146 465v67q-10 280 170 477q180 201 354 201zM-1 603h1048v-102h-1048v102zM-1 807h1048v-102h-1048v102z" />
    <glyph glyph-name="guilsinglleft" unicode="&#x2039;" horiz-adv-x="576" 
d="M260 419q253 -376 253 -383q0 -5 -14 -5q-9 0 -20 1q-25 19 -414 387l378 357q15 12 21 18q18 16 29 16q18 0 18 -7q0 -6 -12 -23z" />
    <glyph glyph-name="guilsinglright" unicode="&#x203a;" horiz-adv-x="576" 
d="M317 419l-251 384q0 7 18 7q12 0 29 -16q6 -6 21 -18l378 -357q-335 -325 -414 -387q-11 -1 -20 -1q-14 0 -14 5q0 7 253 383z" />
    <glyph glyph-name="fi" unicode="&#xf001;" horiz-adv-x="1048" 
d="M804 1514h16q57 0 68 -72q0 -51 -72 -68q-72 10 -72 72q15 68 60 68zM540 1680h48q204 0 312 -216q-1 -18 -64 -60h-8q-5 0 -72 116q-95 112 -216 112q-186 0 -240 -296q-4 -23 -4 -64v-348h188q8 -1 8 -8v-40q0 -8 -8 -8h-192v-692q0 -89 64 -120q72 -9 72 -16v-32
q0 -8 -8 -8h-352q-8 0 -8 8v32q0 5 76 20q60 22 60 160v648h-64q-8 0 -8 8v40q1 8 8 8h64v384q0 272 232 352q62 20 112 20zM868 868l4 -8v-212q0 -28 2 -437q-2 -133 66 -155q40 -12 64 -16v-32q0 -8 -8 -8h-352q-8 0 -8 8v32q0 7 68 16q62 7 66 111q1 37 2 453
q0 109 -60 140q-45 22 -76 20v32q0 14 224 52q0 4 8 4z" />
    <glyph glyph-name="fl" unicode="&#xf002;" horiz-adv-x="1048" 
d="M540 1680h48q53 -48 -48 -48q-186 0 -240 -296q-4 -23 -4 -64v-348h188q8 -1 8 -8v-40q0 -8 -8 -8h-192v-692q0 -89 64 -120q72 -9 72 -16v-32q0 -8 -8 -8h-352q-8 0 -8 8v32q0 5 76 20q60 22 60 160v648h-64q-8 0 -8 8v40q1 8 8 8h64v384q0 272 232 352q62 20 112 20z
M848 1638l4 -8v-1388q0 -17 6 -82.5t58 -101.5q13 -9 68 -16v-36q0 -8 -8 -8h-352q-8 0 -8 8v32q43 2 86.5 22.5t45.5 181.5l4 1148q-9 140 -136 156v40q0 11 232 52z" />
    <glyph glyph-name="uni2219" unicode="&#x2219;" horiz-adv-x="448" 
d="M224 633q41 0 70.5 -28.5t29.5 -70.5t-29 -71t-71 -29q-41 0 -70 29t-29 71q0 41 29 70t70 29z" />
    <glyph glyph-name="quotesinglbase" unicode="&#x201a;" horiz-adv-x="326" 
d="M169 41q-10 5 -18 13q-21 20 -21 49q0 28 20.5 49t49.5 21q28 0 49 -20t21 -50q0 -9 -2 -17v-1q0 -112 -205 -257q-3 -2 -7 -2t-8 2q-5 0 -13 9q-2 11 2 17q4 3 68 54q62 50 64 133z" />
    <glyph glyph-name="quotedblbase" unicode="&#x201e;" horiz-adv-x="725" 
d="M517 40q-10 5 -19 14q-20 20 -20 49q0 28 20.5 49t49.5 21q28 0 49 -20t21 -50q0 -9 -2 -17v-1q0 -112 -205 -257q-3 -2 -7 -2t-8 2q-5 0 -13 9q-2 11 2 17q4 3 68 54q62 50 64 132zM175 40q-10 5 -19 14q-20 20 -20 49q0 28 20.5 49t49.5 21q28 0 49 -20t21 -50
q0 -9 -2 -17v-1q0 -112 -205 -257q-3 -2 -7 -2t-8 2q-5 0 -13 9q-2 11 2 17q4 3 68 54q62 50 64 132z" />
    <glyph glyph-name="Acircumflex" unicode="&#xc2;" horiz-adv-x="1206" 
d="M604 1344q8 -7 176 -468q264 -734 296 -800q31 -40 92 -40v-28q0 -8 -8 -8h-348q-8 0 -8 8v24q1 8 8 8h32q72 0 72 56q-85 256 -96 256h-584q-88 -238 -88 -256v-4q0 -52 60 -52h44q8 -1 8 -8v-24q0 -8 -8 -8h-244q-8 0 -8 8v24q0 7 64 16q32 17 76 140q0 11 420 1156h44
zM528 1156q0 -8 -276 -764h556v4l-276 760h-4zM540 1713h92l159 -291q10 -18 10 -26q0 -13 -13 -13q-8 0 -18 13q-4 5 -11 11l-173 180l-171 -180q-23 -23 -30 -23q-17 0 -17 13q0 4 11 25z" />
    <glyph glyph-name="Ecircumflex" unicode="&#xca;" horiz-adv-x="1032" 
d="M68 1344h872q8 -1 8 -8v-204q0 -8 -8 -8h-24q-5 0 -20 68q-32 59 -120 88q-100 24 -180 24h-184q-87 0 -108 -52q-24 -66 -24 -152v-388h240q120 0 120 92q1 20 12 20h24q8 -1 8 -8v-284q0 -8 -8 -8h-24q-11 0 -20 68q-30 44 -92 44h-260v-392q0 -204 112 -204h204
q223 0 296 104q12 30 20 76h28q8 -1 8 -8v-204q0 -8 -8 -8h-872q-8 0 -8 8v24q0 6 52 20q56 49 56 188v864q0 160 -72 196q-36 3 -36 12v24q1 8 8 8zM480 1713h92l159 -291q10 -18 10 -26q0 -13 -13 -13q-8 0 -18 13q-4 5 -11 11l-173 180l-171 -180q-23 -23 -30 -23
q-17 0 -17 13q0 4 11 25z" />
    <glyph glyph-name="Aacute" unicode="&#xc1;" horiz-adv-x="1206" 
d="M604 1344q8 -7 176 -468q264 -734 296 -800q31 -40 92 -40v-28q0 -8 -8 -8h-348q-8 0 -8 8v24q1 8 8 8h32q72 0 72 56q-85 256 -96 256h-584q-88 -238 -88 -256v-4q0 -52 60 -52h44q8 -1 8 -8v-24q0 -8 -8 -8h-244q-8 0 -8 8v24q0 7 64 16q32 17 76 140q0 11 420 1156h44
zM528 1156q0 -8 -276 -764h556v4l-276 760h-4zM774 1706h16q64 -10 64 -64v-16q0 -32 -140 -148q-84 -88 -104 -88h-24q-6 0 -28 28v24q0 21 188 256z" />
    <glyph glyph-name="Edieresis" unicode="&#xcb;" horiz-adv-x="1032" 
d="M68 1344h872q8 -1 8 -8v-204q0 -8 -8 -8h-24q-5 0 -20 68q-32 59 -120 88q-100 24 -180 24h-184q-87 0 -108 -52q-24 -66 -24 -152v-388h240q120 0 120 92q1 20 12 20h24q8 -1 8 -8v-284q0 -8 -8 -8h-24q-11 0 -20 68q-30 44 -92 44h-260v-392q0 -204 112 -204h204
q223 0 296 104q12 30 20 76h28q8 -1 8 -8v-204q0 -8 -8 -8h-872q-8 0 -8 8v24q0 6 52 20q56 49 56 188v864q0 160 -72 196q-36 3 -36 12v24q1 8 8 8zM684 1599q28 0 49 -20t21 -50q0 -29 -20.5 -49.5t-49.5 -20.5q-28 0 -49 20.5t-21 49.5q0 28 21 49t49 21zM351 1599
q28 0 49 -20t21 -50q0 -29 -20.5 -49.5t-49.5 -20.5q-28 0 -49 20.5t-21 49.5q0 28 21 49t49 21z" />
    <glyph glyph-name="Egrave" unicode="&#xc8;" horiz-adv-x="1032" 
d="M68 1344h872q8 -1 8 -8v-204q0 -8 -8 -8h-24q-5 0 -20 68q-32 59 -120 88q-100 24 -180 24h-184q-87 0 -108 -52q-24 -66 -24 -152v-388h240q120 0 120 92q1 20 12 20h24q8 -1 8 -8v-284q0 -8 -8 -8h-24q-11 0 -20 68q-30 44 -92 44h-260v-392q0 -204 112 -204h204
q223 0 296 104q12 30 20 76h28q8 -1 8 -8v-204q0 -8 -8 -8h-872q-8 0 -8 8v24q0 6 52 20q56 49 56 188v864q0 160 -72 196q-36 3 -36 12v24q1 8 8 8zM390 1706l28 -8q188 -235 188 -256v-24q-22 -28 -28 -28h-24q-20 0 -104 88q-140 116 -140 148v16q0 54 64 64h16z" />
    <glyph glyph-name="Iacute" unicode="&#xcd;" horiz-adv-x="542" 
d="M128 1334h312q8 -1 8 -8v-24q0 -7 -60 -16q-48 -25 -48 -92v-1064q0 -104 108 -104v-28q0 -8 -8 -8h-312q-8 0 -8 8v24q0 7 60 16q48 25 48 92v1064q0 104 -108 104v28q1 8 8 8zM433 1706h16q64 -10 64 -64v-16q0 -32 -140 -148q-84 -88 -104 -88h-24q-6 0 -28 28v24
q0 21 188 256z" />
    <glyph glyph-name="Icircumflex" unicode="&#xce;" horiz-adv-x="542" 
d="M108 1344h312q8 -1 8 -8v-24q0 -7 -60 -16q-48 -25 -48 -92v-1064q0 -104 108 -104v-28q0 -8 -8 -8h-312q-8 0 -8 8v24q0 7 60 16q48 25 48 92v1064q0 104 -108 104v28q1 8 8 8zM216 1713h92l159 -291q10 -18 10 -26q0 -13 -13 -13q-8 0 -18 13q-4 5 -11 11l-173 180
l-171 -180q-23 -23 -30 -23q-17 0 -17 13q0 4 11 25z" />
    <glyph glyph-name="Idieresis" unicode="&#xcf;" horiz-adv-x="542" 
d="M128 1344h312q8 -1 8 -8v-24q0 -7 -60 -16q-48 -25 -48 -92v-1064q0 -104 108 -104v-28q0 -8 -8 -8h-312q-8 0 -8 8v24q0 7 60 16q48 25 48 92v1064q0 104 -108 104v28q1 8 8 8zM449 1599q28 0 49 -20t21 -50q0 -29 -20.5 -49.5t-49.5 -20.5q-28 0 -49 20.5t-21 49.5
q0 28 21 49t49 21zM116 1599q28 0 49 -20t21 -50q0 -29 -20.5 -49.5t-49.5 -20.5q-28 0 -49 20.5t-21 49.5q0 28 21 49t49 21z" />
    <glyph glyph-name="Igrave" unicode="&#xcc;" horiz-adv-x="542" 
d="M128 1344h312q8 -1 8 -8v-24q0 -7 -60 -16q-48 -25 -48 -92v-1064q0 -104 108 -104v-28q0 -8 -8 -8h-312q-8 0 -8 8v24q0 7 60 16q48 25 48 92v1064q0 104 -108 104v28q1 8 8 8zM110 1716l28 -8q188 -235 188 -256v-24q-22 -28 -28 -28h-24q-20 0 -104 88
q-140 116 -140 148v16q0 54 64 64h16z" />
    <glyph glyph-name="Oacute" unicode="&#xd3;" horiz-adv-x="1218" 
d="M596 1382h56q160 0 320 -196q156 -221 156 -496v-60q0 -330 -236 -584q-145 -116 -260 -116h-56q-160 0 -320 196q-156 221 -156 496v60q0 330 236 584q145 116 260 116zM244 642q0 -652 372 -652q368 0 368 680q0 652 -372 652q-368 0 -368 -680zM776 1716h16
q64 -10 64 -64v-16q0 -32 -140 -148q-84 -88 -104 -88h-24q-6 0 -28 28v24q0 21 188 256z" />
    <glyph glyph-name="Ocircumflex" unicode="&#xd4;" horiz-adv-x="1218" 
d="M596 1382h56q160 0 320 -196q156 -221 156 -496v-60q0 -330 -236 -584q-145 -116 -260 -116h-56q-160 0 -320 196q-156 221 -156 496v60q0 330 236 584q145 116 260 116zM244 642q0 -652 372 -652q368 0 368 680q0 652 -372 652q-368 0 -368 -680zM561 1713h92l159 -291
q10 -18 10 -26q0 -13 -13 -13q-8 0 -18 13q-4 5 -11 11l-173 180l-171 -180q-23 -23 -30 -23q-17 0 -17 13q0 4 11 25z" />
    <glyph glyph-name="Ograve" unicode="&#xd2;" horiz-adv-x="1218" 
d="M596 1382h56q160 0 320 -196q156 -221 156 -496v-60q0 -330 -236 -584q-145 -116 -260 -116h-56q-160 0 -320 196q-156 221 -156 496v60q0 330 236 584q145 116 260 116zM244 642q0 -652 372 -652q368 0 368 680q0 652 -372 652q-368 0 -368 -680zM461 1716l28 -8
q188 -235 188 -256v-24q-22 -28 -28 -28h-24q-20 0 -104 88q-140 116 -140 148v16q0 54 64 64h16z" />
    <glyph glyph-name="Uacute" unicode="&#xda;" horiz-adv-x="1300" 
d="M78 1340h316q8 -1 8 -8v-24q0 -7 -64 -16q-48 -26 -48 -88q-8 -505 -8 -764q0 -460 368 -460q312 0 416 300q24 70 24 288v604q0 112 -40 112q-30 20 -72 20v28q1 8 8 8h244q8 -1 8 -8v-24q0 -7 -64 -16q-44 -29 -44 -96v-588q0 -328 -60 -416q-151 -252 -400 -252h-52
q-230 0 -376 232q-72 125 -72 396q8 303 8 652q-19 80 -80 80q-28 0 -28 8v24q1 8 8 8zM811 1706h16q64 -10 64 -64v-16q0 -32 -140 -148q-84 -88 -104 -88h-24q-6 0 -28 28v24q0 21 188 256z" />
    <glyph glyph-name="Ucircumflex" unicode="&#xdb;" horiz-adv-x="1300" 
d="M78 1340h316q8 -1 8 -8v-24q0 -7 -64 -16q-48 -26 -48 -88q-8 -505 -8 -764q0 -460 368 -460q312 0 416 300q24 70 24 288v604q0 112 -40 112q-30 20 -72 20v28q1 8 8 8h244q8 -1 8 -8v-24q0 -7 -64 -16q-44 -29 -44 -96v-588q0 -328 -60 -416q-151 -252 -400 -252h-52
q-230 0 -376 232q-72 125 -72 396q8 303 8 652q-19 80 -80 80q-28 0 -28 8v24q1 8 8 8zM644 1713h92l159 -291q10 -18 10 -26q0 -13 -13 -13q-8 0 -18 13q-4 5 -11 11l-173 180l-171 -180q-23 -23 -30 -23q-17 0 -17 13q0 4 11 25z" />
    <glyph glyph-name="Ugrave" unicode="&#xd9;" horiz-adv-x="1300" 
d="M78 1340h316q8 -1 8 -8v-24q0 -7 -64 -16q-48 -26 -48 -88q-8 -505 -8 -764q0 -460 368 -460q312 0 416 300q24 70 24 288v604q0 112 -40 112q-30 20 -72 20v28q1 8 8 8h244q8 -1 8 -8v-24q0 -7 -64 -16q-44 -29 -44 -96v-588q0 -328 -60 -416q-151 -252 -400 -252h-52
q-230 0 -376 232q-72 125 -72 396q8 303 8 652q-19 80 -80 80q-28 0 -28 8v24q1 8 8 8zM533 1716l28 -8q188 -235 188 -256v-24q-22 -28 -28 -28h-24q-20 0 -104 88q-140 116 -140 148v16q0 54 64 64h16z" />
    <glyph glyph-name="dotlessi" unicode="&#x131;" horiz-adv-x="533" 
d="M312 868l4 -8v-212q0 -28 2 -437q-2 -133 66 -155q40 -12 64 -16v-32q0 -8 -8 -8h-352q-8 0 -8 8v32q0 7 68 16q62 7 66 111q1 37 2 453q0 109 -60 140q-45 22 -76 20v32q0 14 224 52q0 4 8 4z" />
    <glyph glyph-name="circumflex" unicode="&#x2c6;" horiz-adv-x="580" 
d="M236 1335h92l159 -291q10 -18 10 -26q0 -13 -13 -13q-8 0 -18 13q-4 5 -11 11l-173 180l-171 -180q-23 -23 -30 -23q-17 0 -17 13q0 4 11 25z" />
    <glyph glyph-name="tilde" unicode="&#x2dc;" horiz-adv-x="683" 
d="M247 1165q43 0 112 -37q71 -37 114 -37q72 0 83 61q2 12 31 12q13 0 13 -15q0 -66 -43.5 -116.5t-110.5 -50.5q-56 0 -118 37q-72 42 -109 42q-32 0 -57 -17t-29 -42q-3 -19 -23 -19t-20 14q0 59 42 113.5t115 54.5z" />
    <glyph glyph-name="uni02C9" unicode="&#x2c9;" horiz-adv-x="683" 
d="M62 1065h558v-96h-558v96z" />
    <glyph glyph-name="cedilla" unicode="&#xb8;" horiz-adv-x="683" 
d="M368 12q42 -9 51 -9q0 -17 -47 -131h33q126 -10 126 -74v-19q0 -92 -159 -126h-37q-121 8 -130 33q7 0 23 28q3 0 28 -5q149 18 149 89v9q0 23 -75 28l-23 -5l-19 24q64 158 80 158z" />
    <glyph glyph-name="hungarumlaut" unicode="&#x2dd;" 
d="M268 1496h16q64 -10 64 -64v-16q0 -32 -140 -148q-84 -88 -104 -88h-24q-6 0 -28 28v24q0 21 188 256zM564 1496h16q64 -10 64 -64v-16q0 -32 -140 -148q-84 -88 -104 -88h-24q-6 0 -28 28v24q0 21 188 256z" />
    <glyph glyph-name="brokenbar" unicode="&#xa6;" 
d="M468 1432.72h89v-820.855h-89v820.855zM468 338.719h89v-820.855h-89v820.855z" />
    <glyph glyph-name="Eth" unicode="&#xd0;" horiz-adv-x="1100" 
d="M68 1344h436q181 0 364 -196q168 -219 168 -452v-48q0 -280 -228 -516q-167 -132 -304 -132h-436q-8 0 -8 8v24q0 7 60 16q48 25 48 92v1064q0 104 -108 104v28q1 8 8 8zM250 1176v-1008q7 -120 52 -120q24 -12 88 -12q261 0 352 144q120 162 120 480v24q0 411 -196 556
q-81 68 -284 68q-100 0 -120 -48q-12 -43 -12 -84zM-66 723h687v-102h-687v102z" />
    <glyph glyph-name="Yacute" unicode="&#xdd;" horiz-adv-x="1200" 
d="M38 1344h312q8 -1 8 -8v-24q0 -7 -64 -16q-20 -13 -20 -32v-12q11 -57 232 -364l120 -188h8l312 480q12 31 12 56v4q0 57 -96 68v28q1 8 8 8h288q8 -1 8 -8v-24q0 -5 -60 -24q-110 -89 -236 -288q-6 -14 -216 -332v-500q0 -96 48 -120q64 -9 64 -16v-24q0 -8 -8 -8h-316
q-8 0 -8 8v24q0 5 72 20q40 25 40 120v488q0 23 -288 432q-159 216 -228 216v28q1 8 8 8zM895 1936h16q64 -10 64 -64v-16q0 -32 -140 -148q-84 -88 -104 -88h-24q-6 0 -28 28v24q0 21 188 256z" />
    <glyph glyph-name="yacute" unicode="&#xfd;" 
d="M48 864h296q8 -1 8 -8v-36q0 -8 -8 -8h-36q-52 0 -52 -48q0 -41 280 -600l28 -64h4q244 576 272 664v12q-12 36 -52 36h-36q-8 0 -8 8v36q1 8 8 8h220q8 -1 8 -8v-36q0 -6 -48 -16q-21 -11 -120 -268q-288 -701 -364 -848q-139 -188 -324 -188h-24q-17 0 -20 64v24
q0 12 144 20q131 36 176 104q91 187 96 244q0 44 -300 664q-77 192 -124 192q-32 0 -32 8v36q1 8 8 8zM617 1496h16q64 -10 64 -64v-16q0 -32 -140 -148q-84 -88 -104 -88h-24q-6 0 -28 28v24q0 21 188 256z" />
    <glyph glyph-name="multiply" unicode="&#xd7;" horiz-adv-x="742" 
d="M164 710l61 58q7 5 11 0l146 -154l154 145q7 5 11 0l58 -61q6 -6 0 -11l-154 -146l145 -154q6 -6 0 -11l-61 -58q-6 -6 -11 0l-146 154l-154 -145q-6 -6 -11 0l-58 61q-4 7 0 11l154 146l-145 154q-4 7 0 11z" />
    <glyph glyph-name="uni00B9" unicode="&#xb9;" horiz-adv-x="400" 
d="M210 1707l2 -5v-523q0 -49 44 -49l2 -4v-8q0 -4 -4 -4h-138q-5 0 -5 4v8q0 3 38 13q15 13 15 38v393q0 12 2 34q0 48 -23 59q-32 4 -32 8v11q0 6 99 25z" />
    <glyph glyph-name="uni00B2" unicode="&#xb2;" horiz-adv-x="563" 
d="M262 1704h28q126 0 176 -92q11 -27 11 -64q0 -105 -211 -263q-111 -92 -149 -133h257q70 0 89 26q6 8 11 28h11q5 0 5 -4v-99q0 -4 -5 -4h-401q-4 0 -4 4v46q44 45 199 182q112 110 125 154q11 34 11 59q0 94 -112 131q-20 5 -32 5q-111 0 -165 -116q-7 -27 -13 -27
q-12 0 -13 7q12 112 24 112q87 48 158 48z" />
    <glyph glyph-name="uni00B3" unicode="&#xb3;" horiz-adv-x="532" 
d="M257 1699h30q75 0 130 -59q28 -34 28 -80q0 -75 -74 -123q99 -68 99 -143v-19q0 -89 -116 -152q-44 -15 -74 -15h-19q-79 0 -162 59q-15 103 -15 116l4 2h13q24 -85 78 -122q48 -32 80 -32h11q77 0 128 87q13 21 19 63l-2 4v9q0 79 -118 105q-23 2 -40 2h-10q-7 3 -7 13
v4q0 4 47 15q105 42 105 133q0 77 -97 110q-14 2 -23 2h-15q-61 0 -112 -63q-18 -32 -25 -53l-4 -2h-9l-4 2q13 97 21 97q77 40 133 40z" />
    <glyph glyph-name="onehalf" unicode="&#xbd;" horiz-adv-x="1106" 
d="M311 1361l2 -4v-587q0 -54 50 -54l2 -5v-9q0 -5 -5 -5h-155q-4 0 -4 5v9q0 4 42 14q16 16 16 43v441q0 13 3 37q0 54 -26 66q-35 5 -35 9v12q0 7 110 28zM803 651h31q137 0 190 -100q12 -29 12 -69q0 -114 -228 -286q-121 -100 -162 -145h278q76 0 98 29q6 8 12 30h12
q4 0 4 -4v-107q0 -5 -4 -5h-436q-5 0 -5 5v50q49 48 217 197q121 120 136 167q12 37 12 64q0 102 -122 143q-22 5 -36 5q-119 0 -178 -127q-8 -28 -14 -28q-13 0 -15 7q13 121 27 121q94 53 171 53zM858 1560q8 -1 8 -8q-8 -16 -604 -1652h-60q-8 0 -8 8l604 1652h60z" />
    <glyph glyph-name="onequarter" unicode="&#xbc;" horiz-adv-x="1106" 
d="M311 1361l2 -4v-587q0 -54 50 -54l2 -5v-9q0 -5 -5 -5h-155q-4 0 -4 5v9q0 4 42 14q16 16 16 43v441q0 13 3 37q0 54 -26 66q-35 5 -35 9v12q0 7 110 28zM858 1560q8 -1 8 -8q-8 -16 -604 -1652h-60q-8 0 -8 8l604 1652h60zM981 692l3 -4v-455h2q49 0 49 53l5 3h10
q5 -1 5 -5v-122q0 -5 -5 -5h-10q-4 0 -10 34q-15 22 -46 22v-142q0 -51 51 -51l2 -5v-10q0 -5 -4 -5h-164q-5 0 -5 5v10q0 5 41 12q22 16 22 42v144h-349q-5 0 -5 5v10q0 16 200 261q148 186 162 194q39 9 46 9zM612 233h315v393z" />
    <glyph glyph-name="threequarters" unicode="&#xbe;" horiz-adv-x="1106" 
d="M857 1560q8 -1 8 -8q-8 -16 -604 -1652h-60q-8 0 -8 8l604 1652h60zM980 692l3 -4v-455h2q49 0 49 53l5 3h10q5 -1 5 -5v-122q0 -5 -5 -5h-10q-4 0 -10 34q-15 22 -46 22v-142q0 -51 51 -51l2 -5v-10q0 -5 -4 -5h-164q-5 0 -5 5v10q0 5 41 12q22 16 22 42v144h-349
q-5 0 -5 5v10q0 16 200 261q148 186 162 194q39 9 46 9zM611 233h315v393zM220 1346h33q82 0 143 -65q30 -37 30 -88q0 -81 -81 -134q109 -75 109 -157v-21q0 -97 -127 -167q-48 -16 -81 -16h-21q-87 0 -178 65q-16 113 -16 127l4 2h14q27 -93 86 -134q52 -34 88 -34h11
q84 0 141 94q14 23 21 70l-2 4v10q0 87 -130 115q-25 3 -44 3h-11q-7 2 -7 14v4q0 4 51 16q115 47 115 146q0 84 -106 121q-16 2 -26 2h-16q-66 0 -122 -70q-21 -35 -28 -57l-5 -3h-9l-5 3q15 106 23 106q85 44 146 44z" />
    </font>
</defs>
</svg>
